/* XPM */
static char *result[] = {
/* columns rows colors chars-per-pixel */
"32 32 37 1 ",
"  c #282C54",
". c #7C93FF",
"X c #D0DAEB",
"o c #D2DDEC",
"O c #D3DDEC",
"+ c #D3DDED",
"@ c #D5DFEE",
"# c #D5E0EE",
"$ c #D6E0EE",
"% c #DBE5F1",
"& c #DBE6F1",
"* c #DCE6F1",
"= c #DDE8F2",
"- c #DEE8F2",
"; c #DEE9F3",
": c #E0EBF4",
"> c #E1EBF4",
", c #E1ECF4",
"< c #E3EEF5",
"1 c #E3EEF6",
"2 c #E3EFF6",
"3 c #E4EFF6",
"4 c #E8F4F8",
"5 c #E9F4F8",
"6 c #E9F4F9",
"7 c #E9F5F9",
"8 c #EBF7F9",
"9 c #EBF7FA",
"0 c #ECF7FA",
"q c #ECF8FA",
"w c #EEFAFB",
"e c #EEFAFC",
"r c #EFFAFC",
"t c #F1FCFC",
"y c #F1FDFD",
"u c #F3FFFE",
"i c None",
/* pixels */
"iiiiiiiiiiiiiiiiiiiiiiiiiiiiiiii",
"iiiiiiiiiiiiiiiiiiiiiiiiiiiiiiii",
"iiiiiii................iiiiiiiii",
"iiiiiii................iiiiiiiii",
"iiiii....uuuuuuuuuuuu....iiiiiii",
"iiiii....uuuuuuuuuuuu....iiiiiii",
"iiiii..uuuuuuuuuuuuuuuu..  iiiii",
"iiiii..uuuuuuuuuuuuuuuu..  iiiii",
"iiiii..uuuuuu....uuuuuu..  iiiii",
"iiiii..yyyyyy....tyyyyy..  iiiii",
"iiiii..rerw........rwew..  iiiii",
"iiiii..9998........89q0..  iiiii",
"iiiii..5676..6745..6647..  iiiii",
"iiiii..<1<<..<1<2..3<<2..  iiiii",
"iiiii..:,:,..,:,>..,:,:..  iiiii",
"iiiii..;=;=..--;=..=;-;..  iiiii",
"iiiii..&&%&..&&%%..%&%*..  iiiii",
"iiiii..@$$$..#@$$..$@$#..  iiiii",
"iiiii..o+oO........+O++..  iiiii",
"iiiii..XXXX........XXXX..  iiiii",
"iiiii..XXXXXX....XXXXXX..  iiiii",
"iiiii..XXXXXX....XXXXXX..  iiiii",
"iiiii..XXXXXXXXXXXXXXXX..  iiiii",
"iiiii..XXXXXXXXXXXXXXXX..  iiiii",
"iiiii....XXXXXXXXXXXX....  iiiii",
"iiiii....XXXXXXXXXXXX....  iiiii",
"iiiiiii................    iiiii",
"iiiiiii................    iiiii",
"iiiiiiiii                iiiiiii",
"iiiiiiiii                iiiiiii",
"iiiiiiiiiiiiiiiiiiiiiiiiiiiiiiii",
"iiiiiiiiiiiiiiiiiiiiiiiiiiiiiiii"
};
