/* XPM */
static char *result[] = {
/* columns rows colors chars-per-pixel */
"32 32 33 1 ",
"  c #282C54",
". c #7C93FF",
"X c #D0DAEB",
"o c #D3DDEC",
"O c #D3DDED",
"+ c #D5DFEE",
"@ c #D5E0EE",
"# c #D6E0EE",
"$ c #DBE5F1",
"% c #DBE6F1",
"& c #DDE8F2",
"* c #DEE8F2",
"= c #DEE9F3",
"- c #E0EBF4",
"; c #E1EBF4",
": c #E1ECF4",
"> c #E3EEF5",
", c #E3EEF6",
"< c #E3EFF6",
"1 c #E8F4F8",
"2 c #E9F4F8",
"3 c #E9F4F9",
"4 c #E9F5F9",
"5 c #EBF7F9",
"6 c #EBF7FA",
"7 c #ECF7FA",
"8 c #EEFAFB",
"9 c #EEFAFC",
"0 c #EFFAFC",
"q c #F1FCFC",
"w c #F1FDFD",
"e c #F3FFFE",
"r c None",
/* pixels */
"rrrrrrrrrrrrrrrrrrrrrrrrrrrrrrrr",
"rrrrrrrrrrrrrrrrrrrrrrrrrrrrrrrr",
"rrrrrrrrrrr........rrrrrrrrrrrrr",
"rrrrrrrrrrr........rrrrrrrrrrrrr",
"rrrrrrrrr....eeee..  rrrrrrrrrrr",
"rrrrrrrrr....eeee..  rrrrrrrrrrr",
"rrrrrrr....eeeeee..  rrrrrrrrrrr",
"rrrrrrr....eeeeee..  rrrrrrrrrrr",
"rrrrr....eeeeeeee..  rrrrrrrrrrr",
"rrrrr....wwwwwqww..  rrrrrrrrrrr",
"rrrrr..0908898989..  rrrrrrrrrrr",
"rrrrr..6665776767..  rrrrrrrrrrr",
"rrrrr..2343..3412..  rrrrrrrrrrr",
"rrrrr..>,>>..>,><..  rrrrrrrrrrr",
"rrrrr........:-:;..  rrrrrrrrrrr",
"rrrrr........**=&..  rrrrrrrrrrr",
"rrrrrrr    ..%%$$..  rrrrrrrrrrr",
"rrrrrrr    ..@+##..  rrrrrrrrrrr",
"rrrrrrrrrrr..OOOo..  rrrrrrrrrrr",
"rrrrrrrrrrr..XXXX..  rrrrrrrrrrr",
"rrrrr........XXXX........rrrrrrr",
"rrrrr........XXXX........rrrrrrr",
"rrrrr..XXXXXXXXXXXXXXXX..  rrrrr",
"rrrrr..XXXXXXXXXXXXXXXX..  rrrrr",
"rrrrr..XXXXXXXXXXXXXXXX..  rrrrr",
"rrrrr..XXXXXXXXXXXXXXXX..  rrrrr",
"rrrrr....................  rrrrr",
"rrrrr....................  rrrrr",
"rrrrrrr                    rrrrr",
"rrrrrrr                    rrrrr",
"rrrrrrrrrrrrrrrrrrrrrrrrrrrrrrrr",
"rrrrrrrrrrrrrrrrrrrrrrrrrrrrrrrr"
};
