/* XPM */
static char *result[] = {
/* columns rows colors chars-per-pixel */
"32 32 34 1 ",
"  c #282C54",
". c #7C93FF",
"X c #D0DAEB",
"o c #D2DDEC",
"O c #D3DDEC",
"+ c #D3DDED",
"@ c #D5DFEE",
"# c #D5E0EE",
"$ c #D6E0EE",
"% c #DBE5F1",
"& c #DBE6F1",
"* c #DDE8F2",
"= c #DEE8F2",
"- c #DEE9F3",
"; c #E0EBF4",
": c #E1EBF4",
"> c #E1ECF4",
", c #E3EEF5",
"< c #E3EFF6",
"1 c #E4EFF6",
"2 c #E8F4F8",
"3 c #E9F4F8",
"4 c #E9F4F9",
"5 c #E9F5F9",
"6 c #EBF7F9",
"7 c #EBF7FA",
"8 c #ECF7FA",
"9 c #ECF8FA",
"0 c #EEFAFB",
"q c #EEFAFC",
"w c #EFFAFC",
"e c #F1FDFD",
"r c #F3FFFE",
"t c None",
/* pixels */
"tttttttttttttttttttttttttttttttt",
"tttttttttttttttttttttttttttttttt",
"ttttttt................ttttttttt",
"ttttttt................ttttttttt",
"ttttt....rrrrrrrrrrrr....ttttttt",
"ttttt....rrrrrrrrrrrr....ttttttt",
"ttttt..rrrrrrrrrrrrrrrr..  ttttt",
"ttttt..rrrrrrrrrrrrrrrr..  ttttt",
"ttttt..rrrr........rrrr..  ttttt",
"ttttt..eeee........eeee..  ttttt",
"ttttt..wqw0..  ....w0q0..  ttttt",
"ttttt..7776..  ....6798..  ttttt",
"ttttt............534425..  ttttt",
"ttttt............,,1,,<..  ttttt",
"ttttttt....;:>;>:;>>;....  ttttt",
"ttttttt....-*==-*-=*-....  ttttt",
"ttttt....%&&&&&%%&&....    ttttt",
"ttttt....$$#@#@$$$@....    ttttt",
"ttttt..o+oO++........    ttttttt",
"ttttt..XXXXXX........    ttttttt",
"ttttt..XXXX..............ttttttt",
"ttttt..XXXX..............ttttttt",
"ttttt..XXXXXXXXXXXXXXXX..  ttttt",
"ttttt..XXXXXXXXXXXXXXXX..  ttttt",
"ttttt..XXXXXXXXXXXXXXXX..  ttttt",
"ttttt..XXXXXXXXXXXXXXXX..  ttttt",
"ttttt....................  ttttt",
"ttttt....................  ttttt",
"ttttttt                    ttttt",
"ttttttt                    ttttt",
"tttttttttttttttttttttttttttttttt",
"tttttttttttttttttttttttttttttttt"
};
