/* XPM */
static char *result[] = {
/* columns rows colors chars-per-pixel */
"32 32 35 1 ",
"  c #282C54",
". c #7C93FF",
"X c #D0DAEB",
"o c #D2DDEC",
"O c #D3DDEC",
"+ c #D3DDED",
"@ c #D5DFEE",
"# c #D5E0EE",
"$ c #D6E0EE",
"% c #DBE5F1",
"& c #DBE6F1",
"* c #DCE6F1",
"= c #DDE8F2",
"- c #DEE8F2",
"; c #DEE9F3",
": c #E0EBF4",
"> c #E1EBF4",
", c #E1ECF4",
"< c #E3EEF5",
"1 c #E3EEF6",
"2 c #E3EFF6",
"3 c #E4EFF6",
"4 c #E8F4F8",
"5 c #E9F4F8",
"6 c #E9F4F9",
"7 c #E9F5F9",
"8 c #EBF7F9",
"9 c #EBF7FA",
"0 c #ECF7FA",
"q c #EEFAFB",
"w c #EFFAFC",
"e c #F1FCFC",
"r c #F1FDFD",
"t c #F3FFFE",
"y c None",
/* pixels */
"yyyyyyyyyyyyyyyyyyyyyyyyyyyyyyyy",
"yyyyyyyyyyyyyyyyyyyyyyyyyyyyyyyy",
"yyyyyyy..............yyyyyyyyyyy",
"yyyyyyy..............yyyyyyyyyyy",
"yyyyy....tttttttttt....yyyyyyyyy",
"yyyyy....tttttttttt....yyyyyyyyy",
"yyyyy..tttttttttttttt..  yyyyyyy",
"yyyyy..tttttttttttttt..  yyyyyyy",
"yyyyy..tttt......tttt..  yyyyyyy",
"yyyyy..rrrr......errr..  yyyyyyy",
"yyyyy............wqwq..  yyyyyyy",
"yyyyy............9089..  yyyyyyy",
"yyyyyyy    ..67457566....yyyyyyy",
"yyyyyyy    ..<1<2<<3<....yyyyyyy",
"yyyyyyyyyyy..,:,>:,,:,:..  yyyyy",
"yyyyyyyyyyy..--;=;-=;-;..  yyyyy",
"yyyyy............&&%&%*..  yyyyy",
"yyyyy............$@$@$#..  yyyyy",
"yyyyy..o+oO..  ....+O++..  yyyyy",
"yyyyy..XXXX..  ....XXXX..  yyyyy",
"yyyyy..XXXX......XXXXXX..  yyyyy",
"yyyyy..XXXX......XXXXXX..  yyyyy",
"yyyyy....XXXXXXXXXXXX....  yyyyy",
"yyyyy....XXXXXXXXXXXX....  yyyyy",
"yyyyyyy....XXXXXXXX....    yyyyy",
"yyyyyyy....XXXXXXXX....    yyyyy",
"yyyyyyyyy............    yyyyyyy",
"yyyyyyyyy............    yyyyyyy",
"yyyyyyyyyyy            yyyyyyyyy",
"yyyyyyyyyyy            yyyyyyyyy",
"yyyyyyyyyyyyyyyyyyyyyyyyyyyyyyyy",
"yyyyyyyyyyyyyyyyyyyyyyyyyyyyyyyy"
};
