/* XPM */
static char *result[] = {
/* columns rows colors chars-per-pixel */
"32 32 35 1 ",
"  c #282C54",
". c #7C93FF",
"X c #D0DAEB",
"o c #D2DDEC",
"O c #D3DDEC",
"+ c #D3DDED",
"@ c #D5DFEE",
"# c #D5E0EE",
"$ c #D6E0EE",
"% c #DBE5F1",
"& c #DBE6F1",
"* c #DCE6F1",
"= c #DDE8F2",
"- c #DEE8F2",
"; c #DEE9F3",
": c #E0EBF4",
"> c #E1EBF4",
", c #E1ECF4",
"< c #E3EEF5",
"1 c #E3EEF6",
"2 c #E4EFF6",
"3 c #E8F4F8",
"4 c #E9F4F8",
"5 c #E9F4F9",
"6 c #E9F5F9",
"7 c #EBF7F9",
"8 c #EBF7FA",
"9 c #ECF7FA",
"0 c #EEFAFB",
"q c #EEFAFC",
"w c #EFFAFC",
"e c #F1FCFC",
"r c #F1FDFD",
"t c #F3FFFE",
"y c None",
/* pixels */
"yyyyyyyyyyyyyyyyyyyyyyyyyyyyyyyy",
"yyyyyyyyyyyyyyyyyyyyyyyyyyyyyyyy",
"yyyyyyyyyyyyy..........yyyyyyyyy",
"yyyyyyyyyyyyy..........yyyyyyyyy",
"yyyyyyyyyyy....tttttt..  yyyyyyy",
"yyyyyyyyyyy....tttttt..  yyyyyyy",
"yyyyyyyyyyy..tttttttt..  yyyyyyy",
"yyyyyyyyyyy..tttttttt..  yyyyyyy",
"yyyyyyyyy....tttttttt..  yyyyyyy",
"yyyyyyyyy....rerrerrr..  yyyyyyy",
"yyyyyyy....0q0q0qw0w0..  yyyyyyy",
"yyyyyyy....9989898978..  yyyyyyy",
"yyyyyyy..654356..6455..  yyyyyyy",
"yyyyyyy..<<22<1..<<2<..  yyyyyyy",
"yyyyy....:,:>....:,,:....yyyyyyy",
"yyyyy....;=;=....;-=;....yyyyyyy",
"yyyyy..&&%&&&&&%%&&%&%*..  yyyyy",
"yyyyy..@$$$#@#@$$$@$@$#..  yyyyy",
"yyyyy..o+oO+++++O+O+O++..  yyyyy",
"yyyyy..XXXXXXXXXXXXXXXX..  yyyyy",
"yyyyy............XXXX....  yyyyy",
"yyyyy............XXXX....  yyyyy",
"yyyyyyy        ..XXXX..    yyyyy",
"yyyyyyy        ..XXXX..    yyyyy",
"yyyyyyyyyyyyyyy..XXXX..  yyyyyyy",
"yyyyyyyyyyyyyyy..XXXX..  yyyyyyy",
"yyyyyyyyyyyyyyy........  yyyyyyy",
"yyyyyyyyyyyyyyy........  yyyyyyy",
"yyyyyyyyyyyyyyyyy        yyyyyyy",
"yyyyyyyyyyyyyyyyy        yyyyyyy",
"yyyyyyyyyyyyyyyyyyyyyyyyyyyyyyyy",
"yyyyyyyyyyyyyyyyyyyyyyyyyyyyyyyy"
};
