/* XPM */
static char *result[] = {
/* columns rows colors chars-per-pixel */
"32 32 34 1 ",
"  c #282C54",
". c #7C93FF",
"X c #D0DAEB",
"o c #D2DDEC",
"O c #D3DDEC",
"+ c #D3DDED",
"@ c #D5DFEE",
"# c #D5E0EE",
"$ c #D6E0EE",
"% c #DBE5F1",
"& c #DBE6F1",
"* c #DCE6F1",
"= c #DDE8F2",
"- c #DEE8F2",
"; c #DEE9F3",
": c #E0EBF4",
"> c #E1EBF4",
", c #E1ECF4",
"< c #E3EEF5",
"1 c #E3EEF6",
"2 c #E3EFF6",
"3 c #E4EFF6",
"4 c #E8F4F8",
"5 c #E9F4F8",
"6 c #E9F4F9",
"7 c #E9F5F9",
"8 c #EBF7F9",
"9 c #EBF7FA",
"0 c #EEFAFB",
"q c #EEFAFC",
"w c #EFFAFC",
"e c #F1FDFD",
"r c #F3FFFE",
"t c None",
/* pixels */
"tttttttttttttttttttttttttttttttt",
"tttttttttttttttttttttttttttttttt",
"ttttt....................ttttttt",
"ttttt....................ttttttt",
"ttttt..rrrrrrrrrrrrrrrr..  ttttt",
"ttttt..rrrrrrrrrrrrrrrr..  ttttt",
"ttttt..rrrrrrrrrrrrrrrr..  ttttt",
"ttttt..rrrrrrrrrrrrrrrr..  ttttt",
"ttttt..rrrr..............  ttttt",
"ttttt..eeee..............  ttttt",
"ttttt..wqw0............    ttttt",
"ttttt..9998............    ttttt",
"ttttt..56765467457566....ttttttt",
"ttttt..<1<<33<1<2<<3<....ttttttt",
"ttttt..:,:,:>,:,>:,,:,:..  ttttt",
"ttttt..;=;=;=--;=;-=;-;..  ttttt",
"ttttt..............%&%*..  ttttt",
"ttttt..............$@$#..  ttttt",
"ttttt..o+oO..    ..+O++..  ttttt",
"ttttt..XXXX..    ..XXXX..  ttttt",
"ttttt..XXXX........XXXX..  ttttt",
"ttttt..XXXX........XXXX..  ttttt",
"ttttt..XXXXXXXXXXXXXXXX..  ttttt",
"ttttt..XXXXXXXXXXXXXXXX..  ttttt",
"ttttt....XXXXXXXXXXXX....  ttttt",
"ttttt....XXXXXXXXXXXX....  ttttt",
"ttttttt................    ttttt",
"ttttttt................    ttttt",
"ttttttttt                ttttttt",
"ttttttttt                ttttttt",
"tttttttttttttttttttttttttttttttt",
"tttttttttttttttttttttttttttttttt"
};
