/* XPM */
static char *result[] = {
/* columns rows colors chars-per-pixel */
"32 32 33 1 ",
"  c #282C54",
". c #7C93FF",
"X c #D0DAEB",
"o c #D3DDEC",
"O c #D3DDED",
"+ c #D5DFEE",
"@ c #D5E0EE",
"# c #D6E0EE",
"$ c #DBE5F1",
"% c #DBE6F1",
"& c #DDE8F2",
"* c #DEE8F2",
"= c #DEE9F3",
"- c #E0EBF4",
"; c #E1EBF4",
": c #E1ECF4",
"> c #E3EEF5",
", c #E3EFF6",
"< c #E4EFF6",
"1 c #E8F4F8",
"2 c #E9F4F8",
"3 c #E9F4F9",
"4 c #E9F5F9",
"5 c #EBF7F9",
"6 c #EBF7FA",
"7 c #ECF7FA",
"8 c #ECF8FA",
"9 c #EEFAFB",
"0 c #EEFAFC",
"q c #EFFAFC",
"w c #F1FDFD",
"e c #F3FFFE",
"r c None",
/* pixels */
"rrrrrrrrrrrrrrrrrrrrrrrrrrrrrrrr",
"rrrrrrrrrrrrrrrrrrrrrrrrrrrrrrrr",
"rrrrr....................rrrrrrr",
"rrrrr....................rrrrrrr",
"rrrrr..eeeeeeeeeeeeeeee..  rrrrr",
"rrrrr..eeeeeeeeeeeeeeee..  rrrrr",
"rrrrr..eeeeeeeeeeeeeeee..  rrrrr",
"rrrrr..eeeeeeeeeeeeeeee..  rrrrr",
"rrrrr..............eeee..  rrrrr",
"rrrrr..............wwww..  rrrrr",
"rrrrrrr      ....q9q909..  rrrrr",
"rrrrrrr      ....675687..  rrrrr",
"rrrrrrrrrrrrr..124233....  rrrrr",
"rrrrrrrrrrrrr..>,>><>....  rrrrr",
"rrrrrrrrrrr....:;-:....    rrrrr",
"rrrrrrrrrrr....=&=*....    rrrrr",
"rrrrrrrrr....%%$$....    rrrrrrr",
"rrrrrrrrr....@+##....    rrrrrrr",
"rrrrrrrrr..OOOOOo..    rrrrrrrrr",
"rrrrrrrrr..XXXXXX..    rrrrrrrrr",
"rrrrrrr....XXXX....  rrrrrrrrrrr",
"rrrrrrr....XXXX....  rrrrrrrrrrr",
"rrrrrrr..XXXX....    rrrrrrrrrrr",
"rrrrrrr..XXXX....    rrrrrrrrrrr",
"rrrrrrr..XXXX..    rrrrrrrrrrrrr",
"rrrrrrr..XXXX..    rrrrrrrrrrrrr",
"rrrrrrr........  rrrrrrrrrrrrrrr",
"rrrrrrr........  rrrrrrrrrrrrrrr",
"rrrrrrrrr        rrrrrrrrrrrrrrr",
"rrrrrrrrr        rrrrrrrrrrrrrrr",
"rrrrrrrrrrrrrrrrrrrrrrrrrrrrrrrr",
"rrrrrrrrrrrrrrrrrrrrrrrrrrrrrrrr"
};
