/* XPM */
static char *result[] = {
/* columns rows colors chars-per-pixel */
"32 32 36 1 ",
"  c #282C54",
". c #7C93FF",
"X c #D0DAEB",
"o c #D2DDEC",
"O c #D3DDEC",
"+ c #D3DDED",
"@ c #D5DFEE",
"# c #D5E0EE",
"$ c #D6E0EE",
"% c #DBE5F1",
"& c #DBE6F1",
"* c #DCE6F1",
"= c #DDE8F2",
"- c #DEE8F2",
"; c #DEE9F3",
": c #E0EBF4",
"> c #E1EBF4",
", c #E1ECF4",
"< c #E3EEF5",
"1 c #E3EEF6",
"2 c #E3EFF6",
"3 c #E4EFF6",
"4 c #E8F4F8",
"5 c #E9F4F8",
"6 c #E9F4F9",
"7 c #E9F5F9",
"8 c #EBF7F9",
"9 c #EBF7FA",
"0 c #ECF7FA",
"q c #ECF8FA",
"w c #EEFAFB",
"e c #EEFAFC",
"r c #EFFAFC",
"t c #F1FDFD",
"y c #F3FFFE",
"u c None",
/* pixels */
"uuuuuuuuuuuuuuuuuuuuuuuuuuuuuuuu",
"uuuuuuuuuuuuuuuuuuuuuuuuuuuuuuuu",
"uuuuuuu................uuuuuuuuu",
"uuuuuuu................uuuuuuuuu",
"uuuuu....yyyyyyyyyyyy....uuuuuuu",
"uuuuu....yyyyyyyyyyyy....uuuuuuu",
"uuuuu..yyyyyy....yyyyyy..  uuuuu",
"uuuuu..yyyyyy....yyyyyy..  uuuuu",
"uuuuu..yyyy........yyyy..  uuuuu",
"uuuuu..tttt........tttt..  uuuuu",
"uuuuu..rerw........rwew..  uuuuu",
"uuuuu..9998........89q0..  uuuuu",
"uuuuu..567654....756647..  uuuuu",
"uuuuu..<1<<33....<<3<<2..  uuuuu",
"uuuuu....:,:>,:,>:,,:....  uuuuu",
"uuuuu....;=;=--;=;-=;....  uuuuu",
"uuuuu..&&%&&&....&&%&%*..  uuuuu",
"uuuuu..@$$$#@....$@$@$#..  uuuuu",
"uuuuu..o+oO........+O++..  uuuuu",
"uuuuu..XXXX........XXXX..  uuuuu",
"uuuuu..XXXX........XXXX..  uuuuu",
"uuuuu..XXXX........XXXX..  uuuuu",
"uuuuu..XXXXXX....XXXXXX..  uuuuu",
"uuuuu..XXXXXX....XXXXXX..  uuuuu",
"uuuuu....XXXXXXXXXXXX....  uuuuu",
"uuuuu....XXXXXXXXXXXX....  uuuuu",
"uuuuuuu................    uuuuu",
"uuuuuuu................    uuuuu",
"uuuuuuuuu                uuuuuuu",
"uuuuuuuuu                uuuuuuu",
"uuuuuuuuuuuuuuuuuuuuuuuuuuuuuuuu",
"uuuuuuuuuuuuuuuuuuuuuuuuuuuuuuuu"
};
