/* XPM */
static char *result[] = {
/* columns rows colors chars-per-pixel */
"32 32 36 1 ",
"  c #282C54",
". c #7C93FF",
"X c #D0DAEB",
"o c #D3DDEC",
"O c #D3DDED",
"+ c #D5DFEE",
"@ c #D5E0EE",
"# c #D6E0EE",
"$ c #DBE5F1",
"% c #DBE6F1",
"& c #DCE6F1",
"* c #DDE8F2",
"= c #DEE8F2",
"- c #DEE9F3",
"; c #E0EBF4",
": c #E1EBF4",
"> c #E1ECF4",
", c #E3EEF5",
"< c #E3EEF6",
"1 c #E3EFF6",
"2 c #E4EFF6",
"3 c #E8F4F8",
"4 c #E9F4F8",
"5 c #E9F4F9",
"6 c #E9F5F9",
"7 c #EBF7F9",
"8 c #EBF7FA",
"9 c #ECF7FA",
"0 c #ECF8FA",
"q c #EEFAFB",
"w c #EEFAFC",
"e c #EFFAFC",
"r c #F1FCFC",
"t c #F1FDFD",
"y c #F3FFFE",
"u c None",
/* pixels */
"uuuuuuuuuuuuuuuuuuuuuuuuuuuuuuuu",
"uuuuuuuuuuuuuuuuuuuuuuuuuuuuuuuu",
"uuuuuuuuu............uuuuuuuuuuu",
"uuuuuuuuu............uuuuuuuuuuu",
"uuuuuuu....yyyyyyyy....uuuuuuuuu",
"uuuuuuu....yyyyyyyy....uuuuuuuuu",
"uuuuu....yyyyyyyyyyyy....uuuuuuu",
"uuuuu....yyyyyyyyyyyy....uuuuuuu",
"uuuuu..yyyyyy....yyyyyy..  uuuuu",
"uuuuu..tttttt....rttttt..  uuuuu",
"uuuuu..eweq........eqwq..  uuuuu",
"uuuuu..8887........7809..  uuuuu",
"uuuuu..4565........5536..  uuuuu",
"uuuuu..,<,,........2,,1..  uuuuu",
"uuuuu..;>;>;:....;>>;>;..  uuuuu",
"uuuuu..-*-*-*....-=*-=-..  uuuuu",
"uuuuu....$%%%%%$$%%$%$&..  uuuuu",
"uuuuu....##@+@+###+#+#@..  uuuuu",
"uuuuuuu............OoOO..  uuuuu",
"uuuuuuu............XXXX..  uuuuu",
"uuuuuuu..XXXX....XXXXXX..  uuuuu",
"uuuuuuu..XXXX....XXXXXX..  uuuuu",
"uuuuuuu..XXXXXXXXXXXX....  uuuuu",
"uuuuuuu..XXXXXXXXXXXX....  uuuuu",
"uuuuuuu....XXXXXXXX....    uuuuu",
"uuuuuuu....XXXXXXXX....    uuuuu",
"uuuuuuuuu............    uuuuuuu",
"uuuuuuuuu............    uuuuuuu",
"uuuuuuuuuuu            uuuuuuuuu",
"uuuuuuuuuuu            uuuuuuuuu",
"uuuuuuuuuuuuuuuuuuuuuuuuuuuuuuuu",
"uuuuuuuuuuuuuuuuuuuuuuuuuuuuuuuu"
};
