/* XPM */
static char *result[] = {
/* columns rows colors chars-per-pixel */
"32 16 3 1 ",
"  c #819796",
". c #C7CFCC",
"X c None",
/* pixels */
"XXXXXXXXXXXXXXXXXXXXXXXXXXXXXXXX",
"XXXXXXXXXXXXXXXXXXXXXXXXXXXXXXXX",
"XXXXXXXXXXXXXXXXXXXXXXXXXXXXXXXX",
"XXXXXXXXXXXXXXXXXXXXXXXXXXXXXXXX",
"XXXXXXXXXXXXXXXXXXXXXXXXXXXXXXXX",
"XXXXXXXXXXXXXXXXXXXXXXXXXXXXXXXX",
"XXXXXXXXXXXXXXXXXXXXXXXXXXXXXXXX",
"XXXXXXXXXXXXXXXXXXXXXXXXXXXXXXXX",
"XXXXXXXXXXXXXXXXXXXXXXXXXXXXXXXX",
"XXXXXXXXXXXXXXXXXXXXXXXXXXXXXXXX",
"XXXXXXXXXXXXXXX..XXXXXXXXXXXXXXX",
"XXXXXXXXXXXXXX....XX...XXXXXXXXX",
"XXXXXXXXXXXXXX..... ....XXXXXXXX",
"XXXXXXXXXXX... ....  ...XXXXXXXX",
"XXXXXXXXXX ....  ...  .XXXXXXXXX",
"XXXXXXXXXXX  ..      XXXXXXXXXXX"
};
