/* XPM */
static char *result[] = {
/* columns rows colors chars-per-pixel */
"32 16 3 1 ",
"  c #819796",
". c #C7CFCC",
"X c None",
/* pixels */
"XXXXXXXXXXXXXXXXXXXXXXXXXXXXXXXX",
"XXXXXXXXXXXXXXXXXXXXXXXXXXXXXXXX",
"XXXXXXXXXXXXXXXXXXXXXXXXXXXXXXXX",
"XXXXXXXXXXXXXXXXXXXXXXXXXXXXXXXX",
"XXXXXXXXXXXXXXXXXXXXXXXXXXXXXXXX",
"XXXXXXXXXXXXXXXXXXXXXXXXXXXXXXXX",
"XXXXXXXXXXXXXXXXXXXXXXXXXXXXXXXX",
"XXXXXXXXXXXXXXXXXXXXXXXXXXXXXXXX",
"XXXXXXXXXXXXXXXXXXXXXXXXXXXXXXXX",
"XXXXXXXXXXXXXXXXXXXXXXXXXXXXXXXX",
"XXXXXXXXXXXXXXX..XXXXXXXXXXXXXXX",
"XXXXXXXXXXXXXXX ..XXX...XXXXXXXX",
"XXXXXXXXXXX..XX ..XX.....XXXXXXX",
"XXXXXXXXXX....X  .XX ....XXXXXXX",
"XXXXXXXXX  ....  .     .XXXXXXXX",
"XXXXXXXXXX    .. ..  XXXXXXXXXXX"
};
