/* XPM */
static char *result[] = {
/* columns rows colors chars-per-pixel */
"32 16 3 1 ",
"  c #819796",
". c #C7CFCC",
"X c None",
/* pixels */
"XXXXXXXXXXXXXXXXXXXXXXXXXXXXXXXX",
"XXXXXXXXXXXXXXXXXXXXXXXXXXXXXXXX",
"XXXXXXXXXXXXXXXXXXXXXXXXXXXXXXXX",
"XXXXXXXXXXXXXXXXXXXXXXXXXXXXXXXX",
"XXXXXXXXXXXXXXXXXXXXXXXXXXXXXXXX",
"XXXXXXXXXXXXXXXXXXXXXXXXXXXXXXXX",
"XXXXXXXXXXXXXXXXXXXXXXXXXXXXXXXX",
"XXXXXXXXXXXXXXXXX.XXXXXXXXXXXXXX",
"XXXXXXXXXXXXXXXX...XXXXXXXXXXXXX",
"XXXXXXXXXXXXXXXX .XXXXXXXXXXXXXX",
"XXXXXXXXXXXXXXX . XXX...XXXXXXXX",
"XXXXXXXXXXXXXXX ...X.....XXXXXXX",
"XXXXXXXXX..XXXX  ..X ....XXXXXXX",
"XXXXXXXX ...XXX  .X   ...XXXXXXX",
"XXXXXXXX  ..X.XX        XXXXXXXX",
"XXXXXXXXX   X .X XX  XXXXXXXXXXX"
};
