/* XPM */
static char *result[] = {
/* columns rows colors chars-per-pixel */
"32 16 3 1 ",
"  c #819796",
". c #C7CFCC",
"X c None",
/* pixels */
"XXXXXXXXXXXXXXXXXXXXXXXXXXXXXXXX",
"XXXXXXXXXXXXXXXXXXXXXXXXXXXXXXXX",
"XXXXXXXXXXXXXXXXXXXXXXXXXXXXXXXX",
"XXXXXXXXXXXXXXXXXXXXXXXXXXXXXXXX",
"XXXXXXXXXXXXXXXXXXXXXXXXXXXXXXXX",
"XXXXXXXXXXXXXXXXXXXXXXXXXXXXXXXX",
"XXXXXXXXXXXXXXXXXX.XXXXXXXXXXXXX",
"XXXXXXXXXXXXXXXXX ..XXXXXXXXXXXX",
"XXXXXXXXXXXXXXXXXX XXXXXXXXXXXXX",
"XXXXXXXXXXXXXXXXXXXXXXXXXXXXXXXX",
"XXXXXXXXXXXXXXXX..XXXXX..XXXXXXX",
"XXXXXXXXXXXXXXX  ..XXX ...XXXXXX",
"XXXXXXXX..XXXXXX  XX.X  ..XXXXXX",
"XXXXXXX  ..XXXXXXXX  .X  XXXXXXX",
"XXXXXXXX  XXX XX .XX XXXXXXXXXXX",
"XXXXXXXXXX  X XXXXXXXXXXXXXXXXXX"
};
