/* XPM */
static char *result[] = {
/* columns rows colors chars-per-pixel */
"32 16 3 1 ",
"  c #819796",
". c #C7CFCC",
"X c None",
/* pixels */
"XXXXXXXXXXXXXXXXXXXXXXXXXXXXXXXX",
"XXXXXXXXXXXXXXXXXXXXXXXXXXXXXXXX",
"XXXXXXXXXXXXXXXXXXXXXXXXXXXXXXXX",
"XXXXXXXXXXXXXXXXXXXXXXXXXXXXXXXX",
"XXXXXXXXXXXXXXXXXXXXXXXXXXXXXXXX",
"XXXXXXXXXXXXXXXXXXXXXXXXXXXXXXXX",
"XXXXXXXXXXXXXXXXXX..XXXXXXXXXXXX",
"XXXXXXXXXXXXXXXXXXXXXXXXXXXXXXXX",
"XXXXXXXXXXXXXXXXXXXXXXXXXXXXXXXX",
"XXXXXXXXXXXXXXXX ..XXXXXXXXXXXXX",
"XXXXXXXXXXXXXXXXX .XXXXXX.XXXXXX",
"XXXXXXXXXXXXXXXXXXXXXXXX ..XXXXX",
"XXXXXXX.XXXXXXXXXXXXX .X  .XXXXX",
"XXXXXX ..XXXXXXXXXXXXX XX XXXXXX",
"XXXXXXX XXXXXXXXX XXXXXXXXXXXXXX",
"XXXXXXXXXX XX XXXXXXXXXXXXXXXXXX"
};
