/* XPM */
static char *result[] = {
/* columns rows colors chars-per-pixel */
"32 32 4 1 ",
"  c #72751B",
". c #FC9611",
"X c #FCC711",
"o c #FFCD50",
/* pixels */
"                                ",
"                                ",
"                                ",
"                       X        ",
"                      XX        ",
"                      X         ",
"                                ",
"                                ",
"                                ",
"              oooo              ",
"            oooooooo            ",
"           oooooooooo           ",
"          oooooooooooo          ",
"     .    oooooooooooo          ",
"      .  oooooooooooooo         ",
"         oooooooooooooo         ",
"         oooooooooooooo         ",
"         oooooooooooooo         ",
"          oooooooooooo          ",
"          oooooooooooo          ",
"           oooooooooo           ",
"            oooooooo            ",
"              oooo              ",
"                                ",
"                                ",
"                                ",
"                                ",
"                                ",
"                                ",
"                                ",
"                                ",
"                                "
};
