/* XPM */
static char *result[] = {
/* columns rows colors chars-per-pixel */
"32 32 7 1 ",
"  c #72751B",
". c #A43D11",
"X c #FC9611",
"o c #FCC711",
"O c #FED64D",
"+ c #FFCD50",
"@ c white",
/* pixels */
"                                ",
"                                ",
"                .               ",
"                .      O        ",
"               .      OO        ",
"                      OO        ",
"                      OO        ",
"               @@@@   OO        ",
"             @@++++@@ O         ",
"           @@++++++++@@         ",
"          @@++++++++++@@        ",
"          @++++++++++++@        ",
"         @++++++++++++++@       ",
"     o   @++++++++++++++@       ",
"     oo @++++++++++++++++@      ",
"  .   o @+.+++++++++++.++@   .  ",
".       @+.++++++++++.+++@     .",
"        @++++++++++++++++@      ",
"         @++++++++++++++@       ",
"         @++++++++++++X+@       ",
"          @++++++++++X+@        ",
"          @@++++.+++++@@        ",
"           @@++++++++@@         ",
"             @@++++@@           ",
"               @@@@             ",
"                                ",
"                                ",
"               .                ",
"                                ",
"                .               ",
"                .               ",
"                                "
};
