/* XPM */
static char *result[] = {
/* columns rows colors chars-per-pixel */
"32 32 7 1 ",
"  c #72751B",
". c #FC9611",
"X c #FCC711",
"o c #FED64D",
"O c #FFCD50",
"+ c #F7E476",
"@ c white",
/* pixels */
"                                ",
"                                ",
"                .               ",
"                .               ",
"               ..               ",
"               ..               ",
"             @@.@@@             ",
"           @@@++++@@@  X        ",
"          @@++OOOO++@@X         ",
"         @++OOOOOOOO++@         ",
"        @++OOOOOOOOOO++@        ",
"       @@+OOOOO..OOOOO+@@       ",
"       @+OOOOOOOOOOOOOO+@       ",
"     o@@+OOOOOOOOOOOOOO+@@      ",
"     oo+OOOOOOOOOOOOOOOO+@      ",
"  .. oo+OO..OOOOOOOOO..O+@  ..  ",
"...  oo+OO..OOOOOOOO..OO+@  ....",
"     oo+OOOOOOOOOOOOOOOO+@      ",
"     oo@+OOOOOOOOOOOOOO+@@      ",
"      o@+OOOOOOOOOOOOOX+@       ",
"       @@+OOOOO..OOOOXX@@       ",
"        @++OOOOO.OOOOX+@        ",
"         @++OOOOOOOO++@         ",
"          @@++OOOO++@@          ",
"           @@@++++@@@           ",
"             @@@@@@             ",
"               .                ",
"               ..               ",
"                .               ",
"                .               ",
"                .               ",
"                                "
};
