/* XPM */
static char *result[] = {
/* columns rows colors chars-per-pixel */
"32 32 27 1 ",
"  c #72751B",
". c #74751B",
"X c #75751B",
"o c #7C771B",
"O c #83781A",
"+ c #86781A",
"@ c #8B791A",
"# c #977C19",
"$ c #9F7D19",
"% c #A87F19",
"& c #AC8018",
"* c #BA8417",
"= c #BF8517",
"- c #B38218",
"; c #C18517",
": c #C28617",
"> c #C58617",
", c #C68617",
"< c #CB8816",
"1 c #D08916",
"2 c #FC9611",
"3 c #FCC711",
"4 c #FFC54A",
"5 c #FFC84C",
"6 c #FFCD50",
"7 c #F7E476",
"8 c white",
/* pixels */
"                                ",
"              %O                ",
"  *+          OX                ",
"  ,$      8         88       oo ",
"         8   7  777   8      ## ",
"           77           8       ",
"         77          77  8      ",
"     8   -<o           3  8     ",
"     8   +#o  6666    3      @@ ",
"      7     66666666     7   @@ ",
"   8  7   16666666666    7      ",
"   8      466662266666    7     ",
"   8     66666666666666         ",
"  8 7    66666666666666   >=    ",
"  8 7   6666666666666666 #:     ",
"        6622666666666226 oo7    ",
"        6622666666662266   7   .",
"    7   6666666666666666        ",
"  8 7 OX 66666666666666         ",
"   8 7%O 66666666666663   7 8   ",
"     7    6666622666633   7 8   ",
"           66666266663   7      ",
"           &56666666       8    ",
"          -;& 6666      7       ",
"        7 +                OX   ",
"  $$  8  77          77    %O   ",
"       8   77      7    8       ",
"         8   77 .77   8         ",
"  -         8        8   #o    X",
"  +          88   8      #o    O",
"                                ",
"                                "
};
