/* XPM */
static char *result[] = {
/* columns rows colors chars-per-pixel */
"32 32 3 1 ",
"  c #181425",
". c #262B44",
"X c None",
/* pixels */
"XXXXXXXXXXXXXXXXXXXXXXXXXXXXXXXX",
"XXXXXXXXXXXXXXXXXXXXXXXXXXXXXXXX",
"XXXXXXXXXXXXXXXXXXXXXXXXXXXXXXXX",
"XXXXXXXXXXXXXXXXXXXXXXXXXXXXXXXX",
"XXXXXXXXXXXXXXXXXXXXXXXXXXXXXXXX",
"XXXXXXXXXXXXXXXXXXXXXXXXXXXXXXXX",
"XXXXXXXXXXXXXXXXXXXXXXXXXXXXXXXX",
"XXXXXXXXXXXXXXXXXXXXXXXXXXXXXXXX",
"XXXXXXXXXXXXXXXXXXXXXXXXXXXXXXXX",
"XXXXXXXXXXXXXXXXXXXXXXXXXXXXXXXX",
"XXXXXX    XXXXXXXXXXXX    XXXXXX",
"XXXX        XXXXXXXX        XXXX",
"XXX   ....   XXXXXX   ....   XXX",
"XXX ........ XXXXXX ........ XXX",
"XXXX........XXXXXXXX........XXXX",
"XXXXXX....XXXXXXXXXXXX....XXXXXX",
"XXXXXXXXXXXXXXXXXXXXXXXXXXXXXXXX",
"XXXXXXXXXXXXXXXXXXXXXXXXXXXXXXXX",
"XXXXXXXXXXXXXXXXXXXXXXXXXXXXXXXX",
"XXXXXXXXXXXXXX    XXXXXXXXXXXXXX",
"XXXXXXXXXXXX        XXXXXXXXXXXX",
"XXXXXXXXXXX   ....   XXXXXXXXXXX",
"XXXXXXXXXXX ........ XXXXXXXXXXX",
"XXXXXXXXXXXX........XXXXXXXXXXXX",
"XXXXXXXXXXXXXX....XXXXXXXXXXXXXX",
"XXXXXXXXXXXXXXXXXXXXXXXXXXXXXXXX",
"XXXXXX    XXXXXXXXXXXX    XXXXXX",
"XXXX        XXXXXXXX        XXXX",
"XXX   ....   XXXXXX   ....   XXX",
"XXX ........ XXXXXX ........ XXX",
"XXXX........XXXXXXXX........XXXX",
"XXXXXX....XXXXXXXXXXXX....XXXXXX"
};
