/* XPM */
static char *result[] = {
/* columns rows colors chars-per-pixel */
"32 32 5 1 ",
"  c #181425",
". c #262B44",
"X c #9E2835",
"o c #F77622",
"O c None",
/* pixels */
"OOOOOOOOOOOOOOOOOOOOOOOOOOOOOOOO",
"OOOOOOOOOOOOOOOOOOOOOOOOOOOOOOOO",
"OOOOOOOOOOOOOOOOOOOOOOOOOOOOOOOO",
"OOOOOOOOOOOOOOOOOOOOOOOOOOOOOOOO",
"OOOOOOOOOOOOOOOOOOOOOOOOOOOOOOOO",
"OOOOOOOOOOOOOOOOOOOOOOOOOOOOOOOO",
"OOOOOOOOOOOOOOOOOOOOOOOOOOOOOOOO",
"OOOOOOOOOOOOOOOOOOOOOOOOOOOOOOOO",
"OOOOOOOOOOOOOOOOOOOOOOOOOOOOOOOO",
"OOOOOOOOOOOOOOOOOOOOOOOOOOOOOOOO",
"OOOOOO    OOOOOOOOOOOO    OOOOOO",
"OOOO   X    OOOOOOOO   X    OOOO",
"OOO   .XX.   OOOOOO   .XX.   OOO",
"OOO ...oo... OOOOOO ...oo... OOO",
"OOOO........OOOOOOOO........OOOO",
"OOOOOO....OOOOOOOOOOOO....OOOOOO",
"OOOOOOOOOOOOOOOOOOOOOOOOOOOOOOOO",
"OOOOOOOOOOOOOOOOOOOOOOOOOOOOOOOO",
"OOOOOOOOOOOOOOOOOOOOOOOOOOOOOOOO",
"OOOOOOOOOOOOOO    OOOOOOOOOOOOOO",
"OOOOOOOOOOOO   X    OOOOOOOOOOOO",
"OOOOOOOOOOO   .XX.   OOOOOOOOOOO",
"OOOOOOOOOOO ...oo... OOOOOOOOOOO",
"OOOOOOOOOOOO........OOOOOOOOOOOO",
"OOOOOOOOOOOOOO....OOOOOOOOOOOOOO",
"OOOOOOOOOOOOOOOOOOOOOOOOOOOOOOOO",
"OOOOOO    OOOOOOOOOOOO    OOOOOO",
"OOOO   X    OOOOOOOO   X    OOOO",
"OOO   .XX.   OOOOOO   .XX.   OOO",
"OOO ...oo... OOOOOO ...oo... OOO",
"OOOO........OOOOOOOO........OOOO",
"OOOOOO....OOOOOOOOOOOO....OOOOOO"
};
