/* XPM */
static char *result[] = {
/* columns rows colors chars-per-pixel */
"32 32 5 1 ",
"  c #181425",
". c #262B44",
"X c #9E2835",
"o c #F77622",
"O c None",
/* pixels */
"OOOOOOOOOOOOOOOOOOOOOOOOOOOOOOOO",
"OOOOOOOOOOOOOOOOOOOOOOOOOOOOOOOO",
"OOOOOOOOOOOOOOOOOOOOOOOOOOOOOOOO",
"OOOOOOOOOOOOOOOOOOOOOOOOOOOOOOOO",
"OOOOOOOOOOOOOOOOOOOOOOOOOOOOOOOO",
"OOOOOOOOOOOOOOOOOOOOOOOOOOOOOOOO",
"OOOOOOOOOOOOOOOOOOOOOOOOOOOOOOOO",
"OOOOOOOOOOOOOOOOOOOOOOOOOOOOOOOO",
"OOOOOOOOOOOOOOOOOOOOOOOOOOOOOOOO",
"OOOOOOOOXOOOOOOOOOOOOOOXOOOOOOOO",
"OOOOOO  X OOOOOOOOOOOO XX OOOOOO",
"OOOO   XX   OOOOOOOO   XX   OOOO",
"OOO   XXXX   OOOOOO   XXXX   OOO",
"OOO ..oXXo.. OOOOOO ..ooXo.. OOO",
"OOOO...oo...OOOOOOOO...oo...OOOO",
"OOOOOO....OOOOOOOOOOOO....OOOOOO",
"OOOOOOOOOOOOOOOOOOOOOOOOOOOOOOOO",
"OOOOOOOOOOOOOOOOOOOOOOOOOOOOOOOO",
"OOOOOOOOOOOOOOOOXOOOOOOOOOOOOOOO",
"OOOOOOOOOOOOOO  X OOOOOOOOOOOOOO",
"OOOOOOOOOOOO   XX   OOOOOOOOOOOO",
"OOOOOOOOOOO   XXXX   OOOOOOOOOOO",
"OOOOOOOOOOO ..oXXo.. OOOOOOOOOOO",
"OOOOOOOOOOOO...oo...OOOOOOOOOOOO",
"OOOOOOOOOOOOOO....OOOOOOOOOOOOOO",
"OOOOOOOXOOOOOOOOOOOOOOOXOOOOOOOO",
"OOOOOO XX OOOOOOOOOOOO XX OOOOOO",
"OOOO   XX   OOOOOOOO   XX   OOOO",
"OOO   XXXX   OOOOOO   XXXX   OOO",
"OOO ..ooXo.. OOOOOO ..ooXo.. OOO",
"OOOO...oo...OOOOOOOO...oo...OOOO",
"OOOOOO....OOOOOOOOOOOO....OOOOOO"
};
