/* XPM */
static char *result[] = {
/* columns rows colors chars-per-pixel */
"32 32 5 1 ",
"  c #181425",
". c #262B44",
"X c #9E2835",
"o c #F77622",
"O c None",
/* pixels */
"OOOOOOOOOOOOOOOOOOOOOOOOOOOOOOOO",
"OOOOOOOOOOOOOOOOOOOOOOOOOOOOOOOO",
"OOOOOOOOOOOOOOOOOOOOOOOOOOOOOOOO",
"OOOOOOOOOOOOOOOOOOOOOOOOOOOOOOOO",
"OOOOOOOOOOOOOOOOOOOOOOOOOOOOOOOO",
"OOOOOOOOOOOOOOOOOOOOOOOOOOOOOOOO",
"OOOOOOOOOOOOOOOOOOOOOOOOOOOOOOOO",
"OOOOOOOOOOOOOOOOOOOOOOOOOOOOOOOO",
"OOOOOOOOXOOOOOOOOOOOOOOXOOOOOOOO",
"OOOOOOOOOOOOOOOOOOOOOOOOOOOOOOOO",
"OOOOOO X  OOOOOOOOOOOO XX OOOOOO",
"OOOO   XX   OOOOOOOO   XX   OOOO",
"OOO   XXXX   OOOOOO   XXXX   OOO",
"OOO ..Xooo.. OOOOOO ..oooX.. OOO",
"OOOO...oo...OOOOOOOO...oo...OOOO",
"OOOOOO....OOOOOOOOOOOO....OOOOOO",
"OOOOOOOOOOOOOOOOOOOOOOOOOOOOOOOO",
"OOOOOOOOOOOOOOOOXOOOOOOOOOOOOOOO",
"OOOOOOOOOOOOOOOOOOOOOOOOOOOOOOOO",
"OOOOOOOOOOOOOO X  OOOOOOOOOOOOOO",
"OOOOOOOOOOOO   XX   OOOOOOOOOOOO",
"OOOOOOOOOOO   XXXX   OOOOOOOOOOO",
"OOOOOOOOOOO ..Xooo.. OOOOOOOOOOO",
"OOOOOOOOOOOO...oo...OOOOOOOOOOOO",
"OOOOOOOXOOOOOO....OOOOOXOOOOOOOO",
"OOOOOOOOOOOOOOOOOOOOOOOOOOOOOOOO",
"OOOOOO XX OOOOOOOOOOOO XX OOOOOO",
"OOOO   XX   OOOOOOOO   XX   OOOO",
"OOO   XXXX   OOOOOO   XXXX   OOO",
"OOO ..oooX.. OOOOOO ..oooX.. OOO",
"OOOO...oo...OOOOOOOO...oo...OOOO",
"OOOOOO....OOOOOOOOOOOO....OOOOOO"
};
