/* XPM */
static char *result[] = {
/* columns rows colors chars-per-pixel */
"32 32 5 1 ",
"  c #181425",
". c #262B44",
"X c #9E2835",
"o c #F77622",
"O c None",
/* pixels */
"OOOOOOOOOOOOOOOOOOOOOOOOOOOOOOOO",
"OOOOOOOOOOOOOOOOOOOOOOOOOOOOOOOO",
"OOOOOOOOOOOOOOOOOOOOOOOOOOOOOOOO",
"OOOOOOOOOOOOOOOOOOOOOOOOOOOOOOOO",
"OOOOOOOOOOOOOOOOOOOOOOOOOOOOOOOO",
"OOOOOOOOOOOOOOOOOOOOOOOOOOOOOOOO",
"OOOOOOOOOOOOOOOOOOOOOOOOOOOOOOOO",
"OOOOOOOOOOOOOOOOOOOOOOOOOOOOOOOO",
"OOOOOOOOOOOOOOOOOOOOOOOOOOOOOOOO",
"OOOOOOOXOOOOOOOOOOOOOOOOXOOOOOOO",
"OOOOOO XX OOOOOOOOOOOO  X OOOOOO",
"OOOO   XX   OOOOOOOO   XX   OOOO",
"OOO   XXXX   OOOOOO   XXXX   OOO",
"OOO ..ooXo.. OOOOOO ..oXXo.. OOO",
"OOOO...oo...OOOOOOOO...oo...OOOO",
"OOOOOO....OOOOOOOOOOOO....OOOOOO",
"OOOOOOOOOOOOOOOOOOOOOOOOOOOOOOOO",
"OOOOOOOOOOOOOOOOOOOOOOOOOOOOOOOO",
"OOOOOOOOOOOOOOOXOOOOOOOOOOOOOOOO",
"OOOOOOOOOOOOOO XX OOOOOOOOOOOOOO",
"OOOOOOOOOOOO   XX   OOOOOOOOOOOO",
"OOOOOOOOOOO   XXXX   OOOOOOOOOOO",
"OOOOOOOOOOO ..ooXo.. OOOOOOOOOOO",
"OOOOOOOOOOOO...oo...OOOOOOOOOOOO",
"OOOOOOOOOOOOOO....OOOOOOOOOOOOOO",
"OOOOOOOOXOOOOOOOOOOOOOOOXOOOOOOO",
"OOOOOO  X OOOOOOOOOOOO  X OOOOOO",
"OOOO   XX   OOOOOOOO   XX   OOOO",
"OOO   XXXX   OOOOOO   XXXX   OOO",
"OOO ..oXXo.. OOOOOO ..oXXo.. OOO",
"OOOO...oo...OOOOOOOO...oo...OOOO",
"OOOOOO....OOOOOOOOOOOO....OOOOOO"
};
