/* XPM */
static char *result[] = {
/* columns rows colors chars-per-pixel */
"32 32 5 1 ",
"  c #181425",
". c #262B44",
"X c #9E2835",
"o c #F77622",
"O c None",
/* pixels */
"OOOOOOOOOOOOOOOOOOOOOOOOOOOOOOOO",
"OOOOOOOOOOOOOOOOOOOOOOOOOOOOOOOO",
"OOOOOOOOOOOOOOOOOOOOOOOOOOOOOOOO",
"OOOOOOOOOOOOOOOOOOOOOOOOOOOOOOOO",
"OOOOOOOOOOOOOOOOOOOOOOOOOOOOOOOO",
"OOOOOOOOOOOOOOOOOOOOOOOOOOOOOOOO",
"OOOOOOOOOOOOOOOOOOOOOOOOOOOOOOOO",
"OOOOOOOOOOOOOOOOOOOOOOOOOOOOOOOO",
"OOOOOOOXOOOOOOOOOOOOOOOOXOOOOOOO",
"OOOOOOOOOOOOOOOOOOOOOOOOOOOOOOOO",
"OOOOOO XX OOOOOOOOOOOO X  OOOOOO",
"OOOO   XX   OOOOOOOO   XX   OOOO",
"OOO   XXXX   OOOOOO   XXXX   OOO",
"OOO ..oooX.. OOOOOO ..Xooo.. OOO",
"OOOO...oo...OOOOOOOO...oo...OOOO",
"OOOOOO....OOOOOOOOOOOO....OOOOOO",
"OOOOOOOOOOOOOOOOOOOOOOOOOOOOOOOO",
"OOOOOOOOOOOOOOOXOOOOOOOOOOOOOOOO",
"OOOOOOOOOOOOOOOOOOOOOOOOOOOOOOOO",
"OOOOOOOOOOOOOO XX OOOOOOOOOOOOOO",
"OOOOOOOOOOOO   XX   OOOOOOOOOOOO",
"OOOOOOOOOOO   XXXX   OOOOOOOOOOO",
"OOOOOOOOOOO ..oooX.. OOOOOOOOOOO",
"OOOOOOOOOOOO...oo...OOOOOOOOOOOO",
"OOOOOOOOXOOOOO....OOOOOOXOOOOOOO",
"OOOOOOOOOOOOOOOOOOOOOOOOOOOOOOOO",
"OOOOOO X  OOOOOOOOOOOO X  OOOOOO",
"OOOO   XX   OOOOOOOO   XX   OOOO",
"OOO   XXXX   OOOOOO   XXXX   OOO",
"OOO ..Xooo.. OOOOOO ..Xooo.. OOO",
"OOOO...oo...OOOOOOOO...oo...OOOO",
"OOOOOO....OOOOOOOOOOOO....OOOOOO"
};
