/* XPM */
static char *result[] = {
/* columns rows colors chars-per-pixel */
"32 32 6 1 ",
"  c #181425",
". c #262B44",
"X c #9E2835",
"o c #F77622",
"O c #FEE761",
"+ c None",
/* pixels */
"++++++++++++++++++++++++++++++++",
"++++++++++++++++++++++++++++++++",
"++++++++++++++++++++++++++++++++",
"++++++++++++++++++++++++++++++++",
"++++++++++++++++++++++++++++++++",
"++++++++++++++++++++++++++++++++",
"++++++++++++++++++++++++++++++++",
"++++++++++++++++++++++++++++++++",
"++++++++++++++++++++++++++++++++",
"++++++++++++++++++++++++++++++++",
"+++++XX XXX++++++++++XX XXX+++++",
"++++XXXXXXX ++++++++XXXXXXX ++++",
"+++ XoXXXoo  ++++++ XoXXXoo  +++",
"+++ .ooOoo.. ++++++ .ooOoo.. +++",
"++++..oOO...++++++++..oOO...++++",
"++++++....++++++++++++....++++++",
"++++++++++++++++++++++++++++++++",
"++++++++++++++++++++++++++++++++",
"++++++++++++++++++++++++++++++++",
"++++++++++++XXX XX++++++++++++++",
"++++++++++++XXXXXXX ++++++++++++",
"+++++++++++ ooXXXoX  +++++++++++",
"+++++++++++ .ooOoo.. +++++++++++",
"++++++++++++..OOo...++++++++++++",
"++++++++++++++....++++++++++++++",
"++++++++++++++++++++++++++++++++",
"+++++XX XXX++++++++++XX XXX+++++",
"++++XXXXXXX ++++++++XXXXXXX ++++",
"+++ XoXXXoo  ++++++ XoXXXoo  +++",
"+++ .ooOoo.. ++++++ .ooOoo.. +++",
"++++..oOO...++++++++..oOO...++++",
"++++++....++++++++++++....++++++"
};
