/* XPM */
static char *result[] = {
/* columns rows colors chars-per-pixel */
"32 32 6 1 ",
"  c #181425",
". c #262B44",
"X c #9E2835",
"o c #F77622",
"O c #FEE761",
"+ c None",
/* pixels */
"+++++++X+++++++++++++++X++++++++",
"+++++++XX++++++++++++++XX+++++++",
"+++++++XXX+++++++++++++XXX++++++",
"+++++++XXXX++++++++++++XXXX+++++",
"++++++++XXX+++++++++++++XXX+++++",
"++++++++XXX+++++++++++++XXX+++++",
"+++++X+++XX++++++++++X+++XX+++++",
"+++++X+++Xo++++++++++X+++Xo+++++",
"+++++XX++Xo++++++++++XX++Xo+++++",
"+++++XXXXXX+++++X++++XXXXXX+++++",
"+++++XXXXoX++++XX++++XXXXoX+++++",
"++++ XoXooX ++XXX+++ XoXooX ++++",
"+++  XXooO   XXXX++  XXooO   +++",
"+++ ..ooOo.. XXX+++ ..ooOo.. +++",
"++++...OO...+XXX++++...OO...++++",
"++++++....+++XX+++X+++....++++++",
"+++++++X+++++oX+++X++++X++++++++",
"+++++++XX++++oX++XX++++XX+++++++",
"+++++++XXX+++XXXXXX++++XXX++++++",
"+++++++XXXX++XoXXXX++++XXXX+++++",
"++++++++XXX+ XooXoX ++++XXX+++++",
"++++++++XXX   OooXX  +++XXX+++++",
"+++++X+++XX ..oOoo.. X+++XX+++++",
"+++++X+++Xo+...OO...+X+++Xo+++++",
"+++++XX++Xo+++....+++XX++Xo+++++",
"+++++XXXXXX++++++++++XXXXXX+++++",
"+++++XXXXoX++++++++++XXXXoX+++++",
"++++ XoXooX ++++++++ XoXooX ++++",
"+++  XXooO   ++++++  XXooO   +++",
"+++ ..ooOo.. ++++++ ..ooOo.. +++",
"++++...OO...++++++++...OO...++++",
"++++++....++++++++++++....++++++"
};
