/* XPM */
static char *result[] = {
/* columns rows colors chars-per-pixel */
"32 32 6 1 ",
"  c #181425",
". c #262B44",
"X c #9E2835",
"o c #F77622",
"O c #FEE761",
"+ c None",
/* pixels */
"+++++++++XX++++++++++++++XX+++++",
"+++++X++++X++++++++++X++++X+++++",
"+++++XX++++++++++++++XX+++++++++",
"+++++XX+++X++++++++++XX+++X+++++",
"+++++XX+++++++++X++++XX+++++++++",
"++++XXX+++X+++XX++++XXX+++X+++++",
"++++XXXX++X++XXX++++XXXX++X+++++",
"++++XXXX+++++XX+++++XXXX++++++++",
"+++++XXX++++XXX++++++XXX++++++++",
"+++++XXXXX++XX+++++++XXXXX++++++",
"+++++XoXXXX+X++++X+++XoXXXX+++++",
"++++ XXoXoX ++++XX++ XXoXoX ++++",
"+++  XoXXo  X+++XX+  XoXXo   +++",
"+++ ..oXXX.. +++XX+ ..oXXX.. +++",
"++++..oOXX..X+++XXX+..oOXX..++++",
"++++++..XXX+X++XXXX+++..XXX+++++",
"+++++++++XX++++XXXX++++++XX+++++",
"+++++X++++X++++XXX+++X++++X+++++",
"+++++XX++++++XXXXX+++XX+++++++++",
"+++++XX+++X+XXXXoX+++XX+++X+++++",
"+++++XX+++++XoXooX  +XX+++++++++",
"++++XXX+++X  ooOoX  XXX+++X+++++",
"++++XXXX++X .oOOo...XXXX++X+++++",
"++++XXXX++++..OOo...XXXX++++++++",
"+++++XXX++++++....+++XXX++++++++",
"+++++XXXXX+++++++++++XXXXX++++++",
"+++++XoXXXX++++++++++XoXXXX+++++",
"++++ XooXoX ++++++++ XooXoX ++++",
"+++  XoOoo   ++++++  XoOoo   +++",
"+++ ..oOOo.. ++++++ ..oOOo.. +++",
"++++..oOO...++++++++..oOO...++++",
"++++++....++++++++++++....++++++"
};
