/* XPM */
static char *result[] = {
/* columns rows colors chars-per-pixel */
"32 32 5 1 ",
"  c #181425",
". c #262B44",
"X c #9E2835",
"o c #F77622",
"O c None",
/* pixels */
"OOOOOOOOOOOOOOOOOOOOOOOOOOOOOOOO",
"OOOOXOOOOOOOOOOOOOOOXOOOOOOOOOOO",
"OOOOXXOOOOOOOOXXOOOXOXOOOOOOOOOO",
"OOOOXXOOOOOOOOXOOOOXOXOOOOOOOOOO",
"OOOOXOOOOOOOOXXOOOOXOOOOOOOOOOOO",
"OOOOOOOOOOOOOXOOOOOOOOOOOOOOOOOO",
"OOOOOOOOOOOOOOOOOOOOOOOOOOOOOOOO",
"OOOOOOOOOOXOXOOOOOOOOOOOOOXOOOOO",
"OOOOOXOOOXXOOOOOOXOOOXOOOXXOOOOO",
"OOOOOXOXXXXOOOOOOOOOOXOXXXXOOOOO",
"OOOOOOXXXXXOOOOOOOXOOOXXXXXOOOOO",
"OOOO XX XX  OOOOOXXO XX XX  OOOO",
"OOO  o...X   OOOOXX  o...X   OOO",
"OOO ........ OOOOOX ........ OOO",
"OOOO......X.OOOOOOOO......X.OOOO",
"OOOOOX....OOOOOOOOOOOX....OOOOOO",
"OOOOOOOOOOOOXOOOOOOOOOOOOOOOOOOO",
"OOOOXOOOOOOOXXOOOXOOXOOOOOOOOOOO",
"OOOOXXOOOOOOXXXOOXOOXXOOOOOOOOOO",
"OOOOXXOOOOOOXXXXX OOXXOOOOOOOOOO",
"OOOOXOOOOOOO oo XX  XOOOOOOOOOOO",
"OOOOOOOOOOO   ...o   OOOOOOOOOOO",
"OOOOOOOOOOO ........ OOOOOOOOOOO",
"OOOOOOOOOOXO........OOOOOOXOOOOO",
"OOOOOXOOOXXOOO....OOOXOOOXXOOOOO",
"OOOOOXOOXXXOOOOOOOOOOXOOXXXOOOOO",
"OOOOOOXXXXXOOOOOOOOOOOXXXXXOOOOO",
"OOOO XX oo  OOOOOOOO XX oo  OOOO",
"OOO  o....   OOOOOO  o....   OOO",
"OOO ........ OOOOOO ........ OOO",
"OOOO........OOOOOOOO........OOOO",
"OOOOOO....OOOOOOOOOOOO....OOOOOO"
};
