/* XPM */
static char *result[] = {
/* columns rows colors chars-per-pixel */
"32 32 5 1 ",
"  c #181425",
". c #69202E",
"X c #262B44",
"o c #9E2835",
"O c None",
/* pixels */
"OOOOOOOOOOOOOOOOOOOOOOOOOOOOOOOO",
"OOOOOOOOOOOOOOOOOOOOOOOOOOOOOOOO",
"OOOOOOOOOOOOOOOOOOOOOOOOOOOOOOOO",
"OOOOOOOOOOOOOOOOOOOOOOOOOOOOOOOO",
"OOOOOOOOOOoOOOOOOOOOOOOOOOoOOOOO",
"OOOOOOOOOooOOOOOOOOOOOOOOooOOOOO",
"OOOOOOOOooOOOOOOOOOOOOOOooOOOOOO",
"OOOOOOOOoOOOOOOOOOOOOOOOoOOOOOOO",
"OOOOOOOOOoOOOOOOOOOOOOOOOoOOOOOO",
"OOOOOOOOOOOOOOOOOOOOOOOOOOOOOOOO",
"OOOOOO    OOOOOOOOOOOO    OOOOOO",
"OOOO        OOOOOOOO        OOOO",
"OOO   XXXX   OOOOOO   XXXX   OOO",
"OOO XXXXXXXX.OOOOOO XXXXXXXX OOO",
"OOOOXXXXXXXXooOOOOOOXXXXXXXXOOOO",
"OOOOOOXXXXOOOooOOOOOOOXXXXOOOOOO",
"OOOOOOOOOOOOOOoOOOOOOOOOOOOOOOOO",
"OOOOOOOOOOOOOOOOOOOOOOOOOOOOOOOO",
"OOOOOOOOOOOOOOOOOOOOOOOOOOOOOOOO",
"OOOOOOOOOOOOOO    OOOOOOOOOOOOOO",
"OOOOOOOOOOoO        OOOOOOoOOOOO",
"OOOOOOOOOoo   XXXX   OOOOooOOOOO",
"OOOOOOOOooO XXXXXXXX OOOooOOOOOO",
"OOOOOOOOoOOOXXXXXXXXOOOOoOOOOOOO",
"OOOOOOOOOOOOOOXXXXOOOOOOOOOOOOOO",
"OOOOOOOOOOOOOOOOOOOOOOOOOOOOOOOO",
"OOOOOO    OOOOOOOOOOOO    OOOOOO",
"OOOO        OOOOOOOO        OOOO",
"OOO   XXXX   OOOOOO   XXXX   OOO",
"OOO XXXXXXXX OOOOOO XXXXXXXX OOO",
"OOOOXXXXXXXXOOOOOOOOXXXXXXXXOOOO",
"OOOOOOXXXXOOOOOOOOOOOOXXXXOOOOOO"
};
