/* XPM */
static char *result[] = {
/* columns rows colors chars-per-pixel */
"32 32 4 1 ",
"  c #181425",
". c #351828",
"X c #262B44",
"o c None",
/* pixels */
"oooooooooooooooooooooooooooooooo",
"oooooooooooooooooooooooooooooooo",
"oooooooooooooooooooooooooooooooo",
"oooooooooooooooooooooooooooooooo",
"oooooooooooooooooooooooooooooooo",
"oooooooooooooooooooooooooooooooo",
"oooooooooooooooooooooooooooooooo",
"oooooooooooooooooooooooooooooooo",
"oooooooooooooooooooooooooooooooo",
"oooooooooooooooooooooooooooooooo",
"oooooo    oooooooooooo    oooooo",
"oooo        oooooooo        oooo",
"ooo . XXXX   oooooo   XXXX   ooo",
"ooo XXXXXXXX oooooo XXXXXXXX ooo",
"ooooXXXXXXXXooooooooXXXXXXXXoooo",
"ooooooXXXXooooooooooooXXXXoooooo",
"oooooooooooooooooooooooooooooooo",
"oooooooooooooooooooooooooooooooo",
"oooooooooooooooooooooooooooooooo",
"oooooooooooooo    oooooooooooooo",
"oooooooooooo        oooooooooooo",
"ooooooooooo   XXXX   ooooooooooo",
"ooooooooooo XXXXXXXX ooooooooooo",
"ooooooooooooXXXXXXXXoooooooooooo",
"ooooooooooooooXXXXoooooooooooooo",
"oooooooooooooooooooooooooooooooo",
"oooooo    oooooooooooo    oooooo",
"oooo        oooooooo        oooo",
"ooo   XXXX   oooooo   XXXX   ooo",
"ooo XXXXXXXX oooooo XXXXXXXX ooo",
"ooooXXXXXXXXooooooooXXXXXXXXoooo",
"ooooooXXXXooooooooooooXXXXoooooo"
};
