/* XPM */
static char *result[] = {
/* columns rows colors chars-per-pixel */
"32 32 15 1 ",
"  c #3F1911",
". c #292323",
"X c #4D162E",
"o c #44343B",
"O c #463D3D",
"+ c #6A353B",
"@ c #605357",
"# c #776B73",
"$ c #70727B",
"% c #B36152",
"& c #E4A368",
"* c #BE22AB",
"= c #AEB4BA",
"- c #E4E7E7",
"; c None",
/* pixels */
";;;;;;;;;;;;;;;;;;;;;;;;;;;;;;;;",
";;;;;;;;;;;;;;;;;;;;;;;;;;;;;;;;",
";;;;;;;;;;;;;;;;;;;;;;;;;;;;;;;;",
";;;;;;;;;;;;;;;;;;;;;;;;;;;;;;;;",
";;;;;;;;;;;;;XXXX;;;;;;;;;;;;;;;",
";;;;;;;;;;;;XXXX*X;;;;;;;;;;;;;;",
";;;;;;;;;;;;XX+%+*;;;;;;;;;;;;;;",
";;;;;;;;;;;;XX&&&X*;;;;;;;;;;;;;",
";;;;;;;;;;;XXX&&&XX;;;;;;;;;;;;;",
";;;;;;;;;;;;;;;%;;;;;;;;@@@;;;;;",
";;;;;;;;;;;-$###@@;;;;##@@@@;;;;",
";;;;;;;;;;$$=..##@@@##@@;;;;;;;;",
";;;;;;;;;;==OOOOOO.@@@@@##;;;;;;",
";;;;;;;;;OO...O..O...ooo####;;;;",
";;;;;;;;;OO;....O.;..;oooo##;;;;",
";;;;;;;;XX;;;..OO;;;..;;ooooooo;",
";;;;;;;;XX;;;=--=;;;..;;;;oooo;;",
";;;;;;;XX;;;;OOOOO;;;..;;;;;;;;;",
";;;-;;;XX;;;;OOOOO;;;..;;;;;;;;;",
";;;;-==.XX.;%%%OO.%;;;.;;;;;;;;;",
";;;;;--.XX.;&%%..+%;;..;;;;;;;;;",
";;;;;;;;;;;&&&%;++%;;;;;;;;;;;;;",
";;;;;;;;;;;&&&%;;+%%;;;;;;;;;;;;",
";;;;;;;;;;&&&%;;;+%%;;;;;;;;;;;;",
";;;;;;;;;;&&&;;;;+%%;;;;;;;;;;;;",
";;;;;;;;;;X&;;;;;; %;;;;;;;;;;;;",
";;;;;;;;;XX ;;;;;;  ;;;;;;;;;;;;",
";;;;;;;;XX ;;;;;;;   ;;;;;;;;;;;",
";;;;;;;XX ;;;;;;;;;  ;;;;;;;;;;;",
";;;;;;XX ;;;;;;;;;;  ;;;;;;;;;;;",
";;;;;   ;;;;;;;;;;;   ;;;;;;;;;;",
";;;;;;;;;;;;;;;;;;;;;;;;;;;;;;;;"
};
