/* XPM */
static char *result[] = {
/* columns rows colors chars-per-pixel */
"32 32 27 1 ",
"  c black",
". c #351817",
"X c #72751B",
"o c #605C48",
"O c #64604B",
"+ c #66624D",
"@ c #6C6852",
"# c #7B796D",
"$ c #7C796D",
"% c #7C7B6E",
"& c #B35F0E",
"* c #807F72",
"= c #CB8F18",
"- c #848377",
"; c #848279",
": c #878679",
"> c #86847A",
", c #86847B",
"< c #87857C",
"1 c #87867C",
"2 c #87867D",
"3 c #88867D",
"4 c #89877F",
"5 c #FFD145",
"6 c #8D8B83",
"7 c #8E8C83",
"8 c #939189",
/* pixels */
"XXXXXXXXXXXXXXXXXXXXXXXXXXXXXXXX",
"XX************XXXX%%%%%%%%%%%%XX",
"X3************3XX;%%%%%%%%%%%%;X",
"X3************3XX;%%%%%%%%%%%%;X",
"X3************3XX;%%%%%%%%%%%%;X",
"X3************3XX;%%%%%%%%%%%%;X",
"X3************3XX;%%%%%%%%%%%%;X",
"X3************   ;%%%%%%%%%%%%;X",
"X3*********** 555 %%%%%%%%%%%%;X",
"X3********** 5= == %%%%%%%%%%%;X",
"X3********** 5 X = %%%%%%%%%%%;X",
"X3********** =& =& %%%%%%%%%%%;X",
"X3*********** =5& %%%%%%%%%%%%;X",
"X3************ & ;%%%%%%%%%%%%;X",
"XO666666666666 = o444444444444OX",
"XXO++++++++++O = XooooooOOoooOXX",
"XXXXXXXXXXXXX  = XXXXXXXXXXXXXXX",
"XX::::::::::: 5= X************XX",
"X7:::::::::::: = -************>X",
"X7::::::::::   & ,************<X",
"X7:::::::::: 5== <************2X",
"X7::::::::::   & 1************2X",
"X7::::::::::::   2************2X",
"X7::::::::::::7XX3************2X",
"X7::::::::::::7XX3************2X",
"X7::::::::::.......***********2X",
"X7::::::::$.........**********<X",
"X7::::::::::.......***********<X",
"X7::::::::::::7XX3#***********<X",
"X7::::::::::::7XX3************<X",
"X@888888888888+XXO666666666666OX",
"XX++@@@@@@@+++XXXXOOOOOOOOOOOOXX"
};
