/* XPM */
static char *result[] = {
/* columns rows colors chars-per-pixel */
"32 32 26 1 ",
"  c black",
". c #351817",
"X c #72751B",
"o c #605C48",
"O c #64604B",
"+ c #66624D",
"@ c #6C6852",
"# c #7B796D",
"$ c #7C7B6E",
"% c #B35F0E",
"& c #807F72",
"* c #CB8F18",
"= c #848377",
"- c #848279",
"; c #878679",
": c #86847A",
"> c #86847B",
", c #87857C",
"< c #87867C",
"1 c #87867D",
"2 c #88867D",
"3 c #89877F",
"4 c #FFD145",
"5 c #8D8B83",
"6 c #8E8C83",
"7 c #939189",
/* pixels */
"XXXXXXXXXXXXXXXXXXXXXXXXXXXXXXXX",
"XX&&&&&&&&&&&&XXXX$$$$$$$$$$$$XX",
"X2&&&&&&&&&&&&2XX-$$$$$$$$$$$$-X",
"X2&&&&&&&&&&&&2XX-$$$$$$$$$$$$-X",
"X2&&&&&&&&&&&&2XX-$$$$$$$$$$$$-X",
"X2&&&&&&&&&&&&2XX-$$$$$$$$$$$$-X",
"X2&&&&&&&&&&&&2XX-$$$$$$$$$$$$-X",
"X2&&&&&&&&&&&&2XX-$$$$$$$$$$$$-X",
"X2&&&&&&&&&&&&   -$$$$$$$$$$$$-X",
"X2&&&&&&&&&&& 444 $$$$$$$$$$$$-X",
"X2&&&&&&&&&& 4* ** $$$$$$$$$$$-X",
"X2&&&&&&&&&& 4 X * $$$$$$$$$$$-X",
"X2&&&&&&&&&& *% *% $$$$$$$$$$$-X",
"X2&&&&&&&&&&& *4% $$$$$$$$$$$$-X",
"XO555555555555 % o333333333333OX",
"XXO++++++++++O * XooooooOOoooOXX",
"XXXXXXXXXXXXXX * XXXXXXXXXXXXXXX",
"XX;;;;;;;;;;;  * X&&&&&&&&&&&&XX",
"X6;;;;;;;;;;; 4* =&&&&&&&&&&&&:X",
"X6;;;;;;;;;;;; * >&&&&&&&&&&&&,X",
"X6;;;;;;;;;;   % ,&&&&&&&&&&&&1X",
"X6;;;;;;;;;; 4** <&&&&&&&&&&&&1X",
"X6;;;;;;;;;;   % 1&&&&&&&&&&&&1X",
"X6;;;;;;;;;;;;   2&&&&&&&&&&&&1X",
"X6;;;;;;;;;;;;6XX2&&&&&&&&&&&&1X",
"X6;;;;;;;;;.........&&&&&&&&&&1X",
"X6;;;;;;;;...........&&&&&&&&&,X",
"X6;;;;;;;;;.........&&&&&&&&&&,X",
"X6;;;;;;;;;;;;6XX2#&&&&&&&&&&&,X",
"X6;;;;;;;;;;;;6XX2&&&&&&&&&&&&,X",
"X@777777777777+XXO555555555555OX",
"XX++@@@@@@@+++XXXXOOOOOOOOOOOOXX"
};
