/* XPM */
static char *result[] = {
/* columns rows colors chars-per-pixel */
"32 32 213 2 ",
"   c #311A12",
".  c #523215",
"X  c #543315",
"o  c #543415",
"O  c #563515",
"+  c #563615",
"@  c #573715",
"#  c #583615",
"$  c #583715",
"%  c #553815",
"&  c #553816",
"*  c #593B15",
"=  c #583A16",
"-  c #593A16",
";  c #593B16",
":  c #593D16",
">  c #5A3D16",
",  c #5B3D16",
"<  c #5B3E16",
"1  c #5A3F17",
"2  c #5B3F17",
"3  c #5B4017",
"4  c #5C4017",
"5  c #5C4217",
"6  c #5C4317",
"7  c #5D4317",
"8  c #5D4417",
"9  c #5D4218",
"0  c #5C4318",
"q  c #5D4318",
"w  c #5D4319",
"e  c #5D4418",
"r  c #5E4419",
"t  c #5E4519",
"y  c #5F4519",
"u  c #5F4619",
"i  c #565112",
"p  c #575112",
"a  c #575212",
"s  c #575213",
"d  c #535715",
"f  c #585213",
"g  c #535815",
"h  c #545815",
"j  c #555815",
"k  c #545915",
"l  c #555915",
"z  c #545816",
"x  c #555816",
"c  c #545916",
"v  c #555916",
"b  c #555917",
"n  c #565916",
"m  c #565917",
"M  c #555A17",
"N  c #565A16",
"B  c #575B16",
"V  c #565A17",
"C  c #575A17",
"Z  c #575B17",
"A  c #575C17",
"S  c #585B17",
"D  c #585C17",
"F  c #595C17",
"G  c #585D17",
"H  c #595D17",
"J  c #5A5E17",
"K  c #5B5E17",
"L  c #5C5E17",
"P  c #595C18",
"I  c #5A5D18",
"U  c #595E18",
"Y  c #5B5E18",
"T  c #5C5F18",
"R  c #604519",
"E  c #604619",
"W  c #614719",
"Q  c #624819",
"!  c #624919",
"~  c #634919",
"^  c #63491A",
"/  c #644A1A",
"(  c #644B1A",
")  c #654B1A",
"_  c #664C1A",
"`  c #674C1A",
"'  c #674D1A",
"]  c #674D1B",
"[  c #625819",
"{  c #635919",
"}  c #655B19",
"|  c #665C19",
" . c #675D1A",
".. c #685E1A",
"X. c #5D6018",
"o. c #606218",
"O. c #606318",
"+. c #616318",
"@. c #626418",
"#. c #626519",
"$. c #636519",
"%. c #636619",
"&. c #67691A",
"*. c #67691B",
"=. c #676A1A",
"-. c #68691B",
";. c #686B1A",
":. c #686A1B",
">. c #696A1B",
",. c #696B1B",
"<. c #696C1A",
"1. c #6A6C1A",
"2. c #6A6D1B",
"3. c #6B6D1B",
"4. c #6B6E1B",
"5. c #6C6E1B",
"6. c #6C6F1B",
"7. c #6D6F1B",
"8. c #6E6F1B",
"9. c #6C6D1D",
"0. c #6C6E1D",
"q. c #6D6F1D",
"w. c #766916",
"e. c #776916",
"r. c #6D701B",
"t. c #6E701B",
"y. c #6E711B",
"u. c #6E711C",
"i. c #6F711C",
"p. c #6F721C",
"a. c #70711B",
"s. c #70721C",
"d. c #70731C",
"f. c #71731C",
"g. c #72731D",
"h. c #73751E",
"j. c #74761D",
"k. c #75761D",
"l. c #75771D",
"z. c #74751E",
"x. c #75751E",
"c. c #76761E",
"v. c #77761E",
"b. c #76771E",
"n. c #77771E",
"m. c #7E731D",
"M. c #7F731D",
"N. c #7F731E",
"B. c #78771F",
"V. c #7F741E",
"C. c #77781E",
"Z. c #6F6F21",
"A. c #6F7021",
"S. c #707021",
"D. c #777721",
"F. c #767522",
"G. c #767622",
"H. c #777622",
"J. c #777722",
"K. c #787722",
"L. c #787821",
"P. c #797822",
"I. c #7A7922",
"U. c #797A23",
"Y. c #7B7A23",
"T. c #7D7C22",
"R. c #7D7D22",
"E. c #7E7D22",
"W. c #7F7E22",
"Q. c #7F7E23",
"!. c #7F7F23",
"~. c #7B7B25",
"^. c #797928",
"/. c #7A7928",
"(. c #7A7A28",
"). c #7B7A28",
"_. c #7C7A29",
"`. c #80741E",
"'. c #807F23",
"]. c #818023",
"[. c #828123",
"{. c #838123",
"}. c #838223",
"|. c #838224",
" X c #848224",
".X c #848324",
"XX c #878429",
"oX c #87842D",
"OX c #888429",
"+X c #888529",
"@X c #89862C",
"#X c #89872C",
"$X c #89862D",
"%X c #89872D",
"&X c #8A862D",
"*X c #8A872D",
"=X c #88842E",
"-X c #89852F",
";X c #8A872E",
":X c #888331",
">X c #888431",
",X c #898432",
"<X c #898532",
"1X c #8A8532",
"2X c #8A8632",
"3X c #8B8632",
"4X c #8C8733",
"5X c #8D8733",
"6X c #8D8833",
"7X c #8E8833",
"8X c #8E8933",
"9X c #8F8934",
"0X c None",
/* pixels */
"0X0X0X0X0X0X0X0X0X0X0X0X0X0X0X0X0X0X0X0X0X0X0X0X0X0X0X0X0X0X0X0X",
"0X0X0X0X0X0X0X0X0X0X0X0X0X0X0X0X0X0X0X0X0X0X0X0X0X0X0X0X0X0X0X0X",
"0X0X0X0X0X0X0X0X0X0X0X0X0X0X0X0X0X0X0X0X0X0X0X0X0X0X0X0X0X0X0X0X",
"0X0X0X0X0X0X0X0X0X0X0X0X0X0X0X) ) / 0X0X0X0X0X0X0X0X0X0X0X0X0X0X",
"0X0X0X0X0X0X0X0X0X0X0X0X0X0X_ 4X4X4X/ 0X0X0X0X0X0X0X0X0X0X0X0X0X",
"0X0X0X0X0X0X0X0X0X0X_ ` ' 0X' 6X4X4X) 0X/ ^ 0X0X0X0X0X0X0X0X0X0X",
"0X0X0X0X0X0X0X0X0X` 6X6X7X] |.6X6X[.[.) H.G.~ 0X0X0X0X0X0X0X0X0X",
"0X0X0X0X0X0X0X0X0X' 7X8X8X X X|.|.}.[.K.J.G.F.Q 0X0X0X0X0X0X0X0X",
"0X0X0X0X0X0X) _ ' |. X X.X.X.X X X|.{.P.K.H.G.! 0X0X0X0X0X0X0X0X",
"0X0X0X0X0X( 4X5X6X8X$X#Xj..X9X8X8X|.}.[.K.J. .| W E y 0X0X0X0X0X",
"0X0X0X0X0X) 4X5X6X8X+X;Xj.j.9X9X8X8X}.[.z... .| q.0.9.t 0X0X0X0X",
"0X0X0X0X0X0X_ 6X6XOX+Xj.j.j.k.9X8X8X}.b.x.h.g.| q.0.9.y   0X0X0X",
"0X0X0X0X0X0X0X_ }.XXw.e.*X*Xl.b.8X7XC.n.c.].'.W.} 0.R         0X",
"0X0X0X0X0X/ ) [.{.|.w..X#X%X%Xb.b.B.n.n.4X3X1XW.t.E             ",
"0X0X0X0X^ oX=X-X6X}.|. X@X&X&X`.V.M.v.b.3X3X1Xa.8.6.y r         ",
"0X0X0X0X! 1X3X4X4X[.}.6X7X|.V.N.M.m.4X4X3X1Xd.y.6.5.4.2.e       ",
"0X0X0X0XQ 1X3X3Xf.f.6X6X6X}.{.{.m.4X4X3X'.Q.W.E.6.4.4.2.l 0   0X",
"0X0X0X0X0X! L.Y.s.f.4X4X1.[.[.[.[.4X3X3X!.W.E.R.5.4.3.l j e 0X0X",
"0X0X0X0XW L.~.U.2X3X3X<.;.4X4X4X].].'.!.W.,X>XT.4.{ [ c q   0X0X",
"0X0X0XE :.D.D.I.1X1X2X=.=.3X3X3Xp.'.Q.t.,X>X:X5.4.M c 8       0X",
"0X0X0Xu -.:.>.,.,X<Xu.&.=.1X1Xi.i.y.t.r.>X:X5.4.3.v k d 6     0X",
"0X0X0Xr A.S.-.@.@.r.t.t.t.t.t.| t.r.7.7.Z C 4.2.v k h g d 5   0X",
"0X0X0Xw Z.S.*.+.6.6.7.7.7.7.r.J J 7.6.5.f s m b v L K K K 5 0X0X",
"0X0X0X0X7 q o.O.(.(.).X.6.6.U H G 5.4.s a p M v x K K K 3 0X0X0X",
"0X0X0X0X0X0X9 _.^./.(.T { { F F A { a p i %.%.x z K K 1 0X0X0X0X",
"0X0X0X0X0X0X4 ^.^.^.2 Y I P D S Z & V N %.$.#.= - ; : 0X0X0X0X0X",
"0X0X0X0X0X0X0X, < > 0X* H D B @ % 0XX n #.#.+ 0X0X0X0X0X0X0X0X0X",
"0X0X0X0X0X0X0X0X0X0X0X0X$ # O 0X0X0X0X. . o 0X0X0X0X0X0X0X0X0X0X",
"0X0X0X0X0X0X0X0X0X0X0X0X0X0X0X0X0X0X0X0X0X0X0X0X0X0X0X0X0X0X0X0X",
"0X0X0X0X0X0X0X0X0X0X0X0X0X0X0X0X0X0X0X0X0X0X0X0X0X0X0X0X0X0X0X0X",
"0X0X0X0X0X0X0X0X0X0X0X0X0X0X0X0X0X0X0X0X0X0X0X0X0X0X0X0X0X0X0X0X",
"0X0X0X0X0X0X0X0X0X0X0X0X0X0X0X0X0X0X0X0X0X0X0X0X0X0X0X0X0X0X0X0X"
};
