/* XPM */
static char *result[] = {
/* columns rows colors chars-per-pixel */
"32 32 60 1 ",
"  c #311512",
". c #4A2611",
"X c #4E2913",
"o c #4F2F1A",
"O c #502A13",
"+ c #4F301B",
"@ c #55331C",
"# c #59351D",
"$ c #4F3B2C",
"% c #573723",
"& c #593720",
"* c #5B3B25",
"= c #543D2C",
"- c #5C3E2A",
"; c #72751B",
": c #5E412C",
"> c #574031",
", c #61432E",
"< c #634632",
"1 c #644833",
"2 c #654B38",
"3 c #5D564D",
"4 c #5F584E",
"5 c #645646",
"6 c #6C5442",
"7 c #655847",
"8 c #6F5847",
"9 c #61574C",
"0 c #645A4E",
"q c #695B4C",
"w c #635C52",
"e c #685F52",
"r c #666056",
"t c #696155",
"y c #676358",
"u c #6B645B",
"i c #6F685F",
"p c #756D5B",
"a c #77705B",
"s c #79715E",
"d c #6F6A60",
"f c #736D63",
"g c #766F68",
"h c #757066",
"j c #7C7462",
"k c #7D7B6E",
"l c #7F7C70",
"z c #817E72",
"x c #838175",
"c c #878578",
"v c #89867A",
"b c #8C8A7E",
"n c #8E8C81",
"m c #918E85",
"M c #939186",
"N c #96948B",
"B c #99968D",
"V c #9A988F",
"C c #9D9B92",
"Z c #A09D96",
/* pixels */
";;;;;;;;;;;;;;;;;;;;;;;;;;;;;;;;",
";;;;;;;;;;;;;;;;;;;;;;;;;;;;;;;;",
";;;;;;;;;;;--,:::-**O;;;;;;;;;;;",
";;;;;;;;;<<BBBNmmmMzzOX;;;;;;;;;",
";;;;;;;86mBBBBBmmmmzzczoO;;;;;;;",
";;;;;;2vmmBBBBBmmmMzczzdgO;;;;;;",
";;;;;1vcMMBBNBNmmmmzzzxgfgO;;;;;",
";;;;;1cvMMBBBBBmmmmzzxxgfdO;;;;;",
";;;;;1vvmMVVNBNmmmMzzzzfdfX;;;;;",
";;;;;1vvMmVVZZZNBBBnzzzfdfX;;;;;",
";;;;;<vvMmZZgggfgdddNmzgddX;;;;;",
";;*-*<vvVBgfggfggfgdddzlffXXXX;;",
";<mvv<mmffgg##&&##&*dduulfX577X;",
";,mvv#ffjg##eqqwqqq9-*duulX575X;",
";,Mvv@pgf,qeeeduuueee0%duuX755.;",
";<Nvv#ff*6eee25-5-5eew9%uu.55eX ",
";1Bvv@ff*e0re>hhdg=wwww%duXweqX ",
";1Vbv@fd*09eee>>==ww9ww+uwXe0e. ",
";1Bvv#fp#9000wwww9w49ww+wr.wee. ",
";1Vvv*ip#09099w39w94www+ww.wqe. ",
";1Bvv*uu%99w>>3>$=9$w9w+4wXeee. ",
";1Bvv&ut#399yw3yuu9ew99+43o0en. ",
";,Bcv&yy#%*%::::-----+++33+ekn. ",
";,Bccx<:jjssaaaafippdppp*=kkkb. ",
";1Bvcccxxxxxzzzlzkkkkkkkkkkkkn. ",
";,MccxcxxxxzzlllkkkkkkkkkkkkkM. ",
";,CCCCVMMMmnbbbbnnbbbbbbbbmMMm. ",
";Oapwewewwwwwww343rwrrr33334wy. ",
";Xfwwwwewwww44444334wrr333333y. ",
";Xdwwewwwww4w4444333w33333333y. ",
";XXXXXoX..o....................;",
";;;;;;;;;;;;;;;;;;;;;;;;;;;;;;;;"
};
