/* XPM */
static char *result[] = {
/* columns rows colors chars-per-pixel */
"32 32 28 1 ",
"  c black",
". c #351817",
"X c #72751B",
"o c #4E413B",
"O c #605C48",
"+ c #64604B",
"@ c #66624D",
"# c #6C6852",
"$ c #7C796D",
"% c #7C7B6E",
"& c #7F7E71",
"* c #B35F0E",
"= c #807F72",
"- c #CB8F18",
"; c #848377",
": c #848279",
"> c #878679",
", c #86847A",
"< c #86847B",
"1 c #87857C",
"2 c #87867C",
"3 c #87867D",
"4 c #88867D",
"5 c #89877F",
"6 c #FFD145",
"7 c #8D8B83",
"8 c #8E8C83",
"9 c #939189",
/* pixels */
"XXXXXXXXXXXXXXXXXXXXXXXXXXXXXXXX",
"XX============XXXX%%%%%%%%%%%%XX",
"X4============4XX:%%%%%%%%%%%%:X",
"X4============4XX:%%%%%%%%%%%%:X",
"X4============4XX:%%%%%%%%%%%%:X",
"X4============4XX:%%%%%%%%%%%%:X",
"X4============   :%%%%%%%%%%%%:X",
"X4=========== 666 %%%%%%%%%%%%:X",
"X4========== 6- -- %%%%%%%%%%%:X",
"X4========== 6 X - %%%%%%%%%%%:X",
"X4========== -* -* %%%%%%%%%%%:X",
"X4=========== -6* %%%%%%%%%%%%:X",
"X4============ * :%%%%%%%%%%%%:X",
"X4============ - :%%%%%%%%%%%%:X",
"X+777777777777 - O555555555555+X",
"XX+@@@@@@@@@@  - XOOOOOO++OOO+XX",
"XXXXXXXXXXXXX 6- XXXXXXXXXXXXXXX",
"XX>>>>>>>>>>>> - X============XX",
"X8>>>>>>>>>>   * ;============,X",
"X8>>>>>>>>>> 6-- <============1X",
"X8>>>>>>>>>>   * 1============3X",
"X8>>>>>>>>>>>>   2============3X",
"X8>>>>>>>>>>>>8XX3============3X",
"X8>>>>>>>>>>>>8XX4============3X",
"X8>>>>>>>>>>>>8XX4============3X",
"X8>>>>>>>>>>$.....============3X",
"X8>>>>>>>>>>o......===========1X",
"X8>>>>>>>>>>>.....&===========1X",
"X8>>>>>>>>>>>>8XX4============1X",
"X8>>>>>>>>>>>>8XX4============1X",
"X#999999999999@XX+777777777777+X",
"XX@@#######@@@XXXX++++++++++++XX"
};
