/* XPM */
static char *result[] = {
/* columns rows colors chars-per-pixel */
"32 32 62 1 ",
"  c #311512",
". c #4A2611",
"X c #4E2913",
"o c #4F2F1A",
"O c #502A13",
"+ c #4F301B",
"@ c #55331C",
"# c #59351D",
"$ c #4F3B2C",
"% c #573723",
"& c #593720",
"* c #5B3B25",
"= c #543D2C",
"- c #5C3E2A",
"; c #5E412C",
": c #574031",
"> c #5B4535",
", c #5E4A3B",
"< c #61432E",
"1 c #634632",
"2 c #644833",
"3 c #654B38",
"4 c #5D564D",
"5 c #5F584E",
"6 c #645646",
"7 c #6C5442",
"8 c #655847",
"9 c #6F5847",
"0 c #61574C",
"q c #645A4E",
"w c #695B4C",
"e c #635C52",
"r c #685F52",
"t c #666056",
"y c #696155",
"u c #676358",
"i c #6B645B",
"p c #6F685F",
"a c #756D5B",
"s c #77705B",
"d c #79715E",
"f c #6F6A60",
"g c #736D63",
"h c #766F68",
"j c #757066",
"k c #7C7462",
"l c #7D7B6E",
"z c #7F7C70",
"x c #817E72",
"c c #838175",
"v c #878578",
"b c #89867A",
"n c #8C8A7E",
"m c #8E8C81",
"M c #918E85",
"N c #939186",
"B c #96948B",
"V c #99968D",
"C c #9A988F",
"Z c #9D9B92",
"A c #A09D96",
"S c None",
/* pixels */
"SSSSSSSSSSSSSSSSSSSSSSSSSSSSSSSS",
"SSSSSSSSSSSSSSSSSSSSSSSSSSSSSSSS",
"SSSSSSSSSSS---1<--**OSSSSSSSSSSS",
"SSSSSSSSS22VVVBMMmMccOOSSSSSSSSS",
"SSSSSSS97MCVBVVMMMMcxccoOSSSSSSS",
"SSSSSS3bMNVVVVVMMMMccxzghOSSSSSS",
"SSSSS2bvMNVVVVBMMMMxxxchgjOSSSSS",
"SSSSS2vbMMVVVVVMMMMcvxxhgfXSSSSS",
"SSSSS2bbMBVVVVVMMMMxvxzgfgXSSSSS",
"SSSSS2bbNMVVAAABVBVMxxxggfXSSSSS",
"SSSSS2bbMMAAhhgghfffMMxhfgXSSSSS",
"SS*-*2bbZVjhghhhhhfhffxljpXXXXSS",
"S1Mbb2Mnjggh###%%&%*gfffzgX688XS",
"S<Nbb#hggj##rrwww66w*%frix.688XS",
"S<Nbb@agk;wririeerrrrw*fiiX868XS",
"S2Bbb#gg*7rrr3366,6eee0%ii.86qX ",
"S2Vbb@gg*eerr>hhhh=eeee%fe.rwqX ",
"S2Vnb@gf*qqeee-===eeeee+ii.ery. ",
"S2Cbb#gg#q0qereee00e5ee@eeXerr. ",
"S2Cbb*ap#qe0q0eeee000ee+eeXewr. ",
"S2Cbb*ii#00e==e$$$0$eeq+t5Xrrr. ",
"S2Vnv*yy%000ut5iir0ee0qo44owrn. ",
"S2Vvv&ir&&%%-*;;;--;-ooo44+rlm. ",
"S<Bvvv<<jkddssssgaaapapa%:llln. ",
"S2Bvvvxvcccclxxlzzlzllllllllln. ",
"S1BvvvxvccccxxzxzlzllllllllllN. ",
"S<AZZZAMNNNmnnmmnmnnnnnnbnNNNN. ",
"SOafeerreeeeqq4444tettt4444qeu. ",
"SOgerereeeee55554444ttt444444u. ",
"S.geeeeeeee5e5554545te4444444u. ",
"SOX.oOOOXX.X.XX................S",
"SSSSSSSSSSSSSSSSSSSSSSSSSSSSSSSS"
};
