/* XPM */
static char *result[] = {
/* columns rows colors chars-per-pixel */
"32 32 72 1 ",
"  c #4F2713",
". c #4E2913",
"X c #532C14",
"o c #542E19",
"O c #57321C",
"+ c #59341D",
"@ c #5D381E",
"# c #5B3721",
"$ c #5E3B24",
"% c #613D25",
"& c #613E29",
"* c #624127",
"= c #64442C",
"- c #674B2F",
"; c #694A2F",
": c #674731",
"> c #654A35",
", c #6A4D31",
"< c #634C38",
"1 c #6C4E39",
"2 c #6E5134",
"3 c #66513D",
"4 c #68523F",
"5 c #705335",
"6 c #735539",
"7 c #75593B",
"8 c #785A3E",
"9 c #675341",
"0 c #695542",
"q c #6C5843",
"w c #6F5F4D",
"e c #7A5E43",
"r c #6F604E",
"t c #7D6144",
"y c #73624E",
"u c #7F6548",
"i c #746552",
"p c #796653",
"a c #7A6A56",
"s c #7C6D5C",
"d c #7E705E",
"f c #806649",
"g c #836A4D",
"h c #876E52",
"j c #886F52",
"k c #806F5E",
"l c #877053",
"z c #8A7256",
"x c #81715F",
"c c #8C765A",
"v c #8E795C",
"b c #907A5D",
"n c #827564",
"m c #857866",
"M c #867968",
"N c #897C6B",
"B c #947F63",
"V c #8E816F",
"C c #968165",
"Z c #988267",
"A c #9A8569",
"S c #8F8271",
"D c #928576",
"F c #948778",
"G c #968B7B",
"H c #988C7E",
"J c #998F81",
"K c #9C9283",
"L c #9F9588",
"P c #A0978A",
"I c #A2988C",
"U c None",
/* pixels */
"U$#++UUUUUUUUUUUUUUUUUUUUUU$++$U",
"#kpp+XXXXX+UXXXXXXXXUXXXXXX$ppsO",
"=mkk@55555g+h5255558@u22522&dsM%",
"1FNN%eggggj=cggfgggz=lfgggg=NNF=",
"1HDD&fhghgb;Bgghgggv;cggggh&DDJ:",
"1PFF&fcbbbB8bccbbccv;cccvvv:DFK:",
"1PKK%gvvbbB8BbbbcvvB,bcvvvB&JGL>",
",IPP=gCCBZA6ZBBBBBBC,BBBBBB&LII>",
"1IPP&gBZBZA8ABBBBZBZ,ZBZBBB:PPP:",
"1IPP&gbABZZ6ABBBBBBB;ZBBBBB:PPI:",
"=PGH@fbbbbZ6BbbbBbbZ;Bbcmbc=HHI:",
"*PHG@fbbbbB6BbbbbcbB;Zcbcbb=GHI:",
"&PND+fbbbbB2BbbbcccB=BbcvbB&NVK,",
"&HDBO8ghggj2jggghghc%cghggg&NDJ:",
"%FNNX8ggggj%zggggggz#jggfgg&MNG&",
"%DmNX8ggggj@jtt8eeezozgggff&MNN&",
"@XOXX88787uX2$#$##+eO777552@XXX@",
"@GGFOXXXXXOXXXVVND+XXXXXXXXOFGG$",
"@VxsX******X$XdXXpX%X,*-=-=XsdV@",
"$mssX-55767X,XidXwX$.755223Xsdd#",
"%nypX-2,227X,XrrXrX$X7,,,,2Xiid#",
"@driX*,2,,7X,X44a0X$.6,,,,,.rrso",
"Opry.*,2,,7X,*XXXX$,X7,,,2,.rrio",
".yqq.*----7X--**&=;,X7,--->.qqr.",
".yqq.$----6.2,-,,,,-X6-----.4qy.",
"Xyq9.$,-;;6.,,,,--,,X6;,--,.r3y.",
".@##+$$$$$6X$$$$*$$$X6$$*$$++++.",
".ndmm...XXXX.XXXXXXX.XXX..Xxddn.",
".rwyi.adsnnmNNNNVVdMMmndss.prrr.",
" <<<i.33994400q03q00099999.y3<<.",
"    ....      ......    .    ...",
"UUUUUUUUUUUUUUUUUUUUUUUUUUUUUUUU"
};
