/* XPM */
static char *result[] = {
/* columns rows colors chars-per-pixel */
"32 32 62 1 ",
"  c #311512",
". c #4A2611",
"X c #4E2913",
"o c #4F2F1A",
"O c #502A13",
"+ c #4F301B",
"@ c #54331E",
"# c #59351D",
"$ c #4F3B2C",
"% c #573723",
"& c #593720",
"* c #5B3B25",
"= c #553D2C",
"- c #5C3E2A",
"; c #72751B",
": c #5D412C",
"> c #574031",
", c #5E4A3B",
"< c #61432E",
"1 c #634632",
"2 c #644833",
"3 c #654B38",
"4 c #5D564C",
"5 c #5F584E",
"6 c #645646",
"7 c #6C5442",
"8 c #6F5847",
"9 c #61574C",
"0 c #645A4E",
"q c #695B4C",
"w c #645C52",
"e c #685F52",
"r c #666056",
"t c #696155",
"y c #676358",
"u c #6B645B",
"i c #6F685F",
"p c #756E5A",
"a c #77705B",
"s c #6F6A60",
"d c #736D63",
"f c #766F68",
"g c #757066",
"h c #7C7462",
"j c #7D7B6E",
"k c #7F7C70",
"l c #817E72",
"z c #FC9611",
"x c #FCC711",
"c c #838175",
"v c #878578",
"b c #89867A",
"n c #8C8A7E",
"m c #FED64D",
"M c #8E8C81",
"N c #918E85",
"B c #939186",
"V c #96948B",
"C c #99968D",
"Z c #9A988F",
"A c #9D9B92",
"S c #A09D96",
/* pixels */
";;;;;;;;;;;;;;;;;;;;;;;;;;;;;;;;",
";;;;;;;;;;;;;;;;;;;;;;;;;;;;;;;;",
";;;;;;;;;;;---<<z-**O;;;;;;;;;;;",
";;;;;;;;;23CVCVNzNNllOX;;;;;;;;;",
";;;;;;;87NVCCCVzzNNllvkoX;;;;;;;",
";;;;;;3bBBCVCCCzzNBlvlkffX;;;;;;",
";;;;;2bvBBCCCCCzNNNllllfdfo;;;;;",
";;;;;2vbBMCCCCCNNNNllvcxsdO;;;;;",
";;;;;2bbNBZCCCCNNNNlllxdsdX;;;;;",
";;;;;2bbBBCCSSACCVVMllldsdX;;;;;",
";;;;;1bbNNSSggddffdsBNlfdiX;;;;;",
";;*-*1bbAZdfggfzzddssfljddXXXX;;",
";1Nbb2NNdfdd##&&@@%*ssssksX666X;",
";<Nbbmfddd##tqqqqqqq**seukX666X;",
";<Bbbmmdd<qqutuueeewe0%suuX666X;",
";1zzbmmd-8zzt23,6,6wwzz%uuX6zzX ",
"zzzbbmmd-9zzt:ggff=wzzw%euXezzzz",
";2Znbmmd-wqewt=>==w5www+uuXw0eX ",
";2Zbbmms#909we5rw9559ww+wr.wqe. ",
";2Cbb*mp#09994r0ww99wwx+ww.wee. ",
";2Cbb-uu@99e>>4zz$9$9xxowwXwqt. ",
";2Cbb&tt#994y04yze9e9xw+44oweM. ",
";2Cvv&uu&&*%:::>:----ooo44oqjM. ",
";<Vvvv::hhaaaaaadpdpdppp=:jjjn. ",
";<CvvvccccllllljkkjjjjjjjjjjjM. ",
";<BvvvvvccclllllkjjjjjjjjjjjjB. ",
";<AAAAZBBBBNnnnzMMbMbMMMvbBBBN. ",
";Opdwweerww5000zz4rwrrw44440wy. ",
";Xdwwrwewwww5555z445wyr444444y. ",
";Xswwwwwwww5w555z454w44444444y. ",
";XXXXOOXo.......z..............;",
";;;;;;;;;;;;;;;;;;;;;;;;;;;;;;;;"
};
