/* XPM */
static char *result[] = {
/* columns rows colors chars-per-pixel */
"32 32 57 1 ",
"  c #311512",
". c #4A2611",
"X c #4E2913",
"o c #4F2F1A",
"O c #502A13",
"+ c #4F301C",
"@ c #54331D",
"# c #59351D",
"$ c #4F3B2C",
"% c #593620",
"& c #5B3B25",
"* c #543D2C",
"= c #5D3E2A",
"- c #72751B",
"; c #5E412D",
": c #61432E",
"> c #634632",
", c #644833",
"< c #654B38",
"1 c #5D564D",
"2 c #5F584E",
"3 c #645646",
"4 c #6C5442",
"5 c #6F5847",
"6 c #61574C",
"7 c #645A4E",
"8 c #695B4C",
"9 c #645C52",
"0 c #685F51",
"q c #666056",
"w c #696155",
"e c #676358",
"r c #6B645B",
"t c #6F685F",
"y c #756E5A",
"u c #77705B",
"i c #6F6A60",
"p c #736D62",
"a c #757066",
"s c #7C7462",
"d c #7D7B6E",
"f c #7F7B70",
"g c #817E72",
"h c #FCC711",
"j c #838175",
"k c #878578",
"l c #89867A",
"z c #8C8A7E",
"x c #FED64D",
"c c #8E8C81",
"v c #918E85",
"b c #939186",
"n c #96948B",
"m c #99968D",
"M c #9A988F",
"N c #9D9B92",
"B c #A09D96",
/* pixels */
"--------------------------------",
"--------------------------------",
"-----------=;=:;;&&&O-----------",
"--------->>mmmmvvvbggXo---------",
"-------54vmmmmnvxvvjjjj.O-------",
"------<lbvmmnmmvxvvjjgjppO------",
"----->llvbmmmmnxxvvjgjjppaX-----",
"----->llbvmmmmmxxvvgjjjpppO-----",
"-----,llvbmmmmmxxvvgjjgpipX-----",
"-----,llbbmmBBBxxmnvjjgpipX-----",
"-----,llbvBBaapxxppivvgiipX-----",
"--&=&,llNmaaaaaxxppiiigfppXXXX--",
"-:vll,vzaapp%##xx%%&iitrfiX363X-",
"-:vll#apap##000xx956&%tt0gX333X-",
"->bll#ppp=88r0xxxxr978*rirX333X-",
"-,nlxxxxxxxxxxxxxxxxxxxxxxxx39X ",
"-xxxxxxxxxxxxxxxxxxxxxxxxxxxxxX ",
"-,mzl@ip&7709qxxxx29992+i9X070X ",
"-,mzlhpy#776999xx992699@99X980. ",
"-,mzl&ht#776619xx66299x+99.900. ",
"-,mll&rr#719;$2xx$6$9xx+99X000. ",
"-:mlk&ww%171w99xxr696xx+22X00c. ",
"-,mkk%qq%@%&*;;xx=&;=xx+11o7dc. ",
"-:mkkl>;sssuuuuxxipyyxxt**dddc. ",
"-:nlkkjkjjjggggxxddddxdddddddz. ",
"-:nlkjkjjjjggggxxddddddddddddv. ",
"-:NNNNMbvbbczczcxczzzzzzllbbbv. ",
"-Oyy090q9q9q2772x2q9qqq1111q9e. ",
"-Xp9999999222222x111qqq111112e. ",
"-Xi9999qqq9292222212211111112e. ",
"-XXXXOXXXX.....................-",
"--------------------------------"
};
