/* XPM */
static char *result[] = {
/* columns rows colors chars-per-pixel */
"32 32 55 1 ",
"  c #311512",
". c #4A2611",
"X c #4E2913",
"o c #4F2F1A",
"O c #502A13",
"+ c #4F301B",
"@ c #55321C",
"# c #59351D",
"$ c #5B3B25",
"% c #573C29",
"& c #5D3F2A",
"* c #72751B",
"= c #5E412D",
"- c #61432E",
"; c #634632",
": c #644833",
"> c #654B38",
", c #5D564D",
"< c #5F584E",
"1 c #645646",
"2 c #6C5442",
"3 c #6F5847",
"4 c #61574C",
"5 c #655C4E",
"6 c #635C52",
"7 c #685F50",
"8 c #666056",
"9 c #696153",
"0 c #676358",
"q c #6B645B",
"w c #6F685F",
"e c #746D5B",
"r c #77705B",
"t c #79715E",
"y c #6F6A60",
"u c #726D62",
"i c #747065",
"p c #7C7462",
"a c #7D7B6E",
"s c #7F7C70",
"d c #817E72",
"f c #FCC711",
"g c #838175",
"h c #878578",
"j c #89867A",
"k c #8C8A7E",
"l c #8E8C81",
"z c #918E85",
"x c #939186",
"c c #96948B",
"v c #99968D",
"b c #9A988F",
"n c #9C9A92",
"m c #A09D96",
"M c white",
/* pixels */
"********************************",
"********************************",
"***********&&&===%%$O***********",
"*********;;vvvvzxzxddoX*********",
"*******32xvvvcczzzxdddgXO*******",
"******>jzzvvvvvzzzxddhdyiO******",
"*****:jhxzvvvvvzzzzdddhiuiX*****",
"*****:hjxxvvvvcMzzzdjddiuuX*****",
"*****:jjzxvvvvMMMzzdjdduuuX*****",
"*****:jjxxvvnMMMMMclddduyuX*****",
"*****;jjxxmmMMMMMMMyzzduyuX*****",
"**&&$;jjbvuMMMMMMMMMuydsuuXXXX**",
"*&zjj:zziiMMMMMMMMMMMqyydyX141X*",
"*-zjj#iuuMMMMMMMMMMMMM7y7dX124X*",
"*;zjj@euMMMMMMMMMMMMMMMyyq.124X*",
"*:cjj#uMMMMMMMMMMMMMMMMMqq.117. ",
"*:vjj@uMMMMMMMMMMMMMMMMMMqX557X ",
"*:bjj@uuMMMMMMMMMMMMMMMMq6X757. ",
"*:vkj#uu#MMMMMMMMMMMMMMo66X679. ",
"*:vjj$ww#4MMMMMMMMMMMM<o66X655X ",
"*:vjj$qq#,4MMMMMMMMMM4<%66X779. ",
"*:vjg$99$,44MMMMMMMM64<+,,o55k. ",
"*:vjh$00##$$$MMMMMM&&ooo,,o5alX ",
"*-vhhh-=ppteerMMMMeeeefe%%aaak. ",
"*-chhhhdggggasgMMaaaafaaaaaaal. ",
"*-chhhhhggggsgssaaaaaaaaaaaaaz. ",
"*-nnbnvxxxzlkkkllllklkkjjkxxxz. ",
"*Ore767786665<6,,,86888,,,,668. ",
"*Xu6667766666<<<,,,,688,,,,,,0. ",
"*Xu66676666<<<<<<<<,6,,,,,,,,0. ",
"*XXXXXoXo......................*",
"********************************"
};
