/* XPM */
static char *result[] = {
/* columns rows colors chars-per-pixel */
"32 32 203 2 ",
"   c #311512",
".  c #482510",
"X  c #492510",
"o  c #492511",
"O  c #4A2511",
"+  c #492611",
"@  c #4A2611",
"#  c #4B2611",
"$  c #4C2711",
"%  c #4C2712",
"&  c #4B2813",
"*  c #4D2812",
"=  c #4E2812",
"-  c #4E2912",
";  c #4F2912",
":  c #4E2813",
">  c #4E2913",
",  c #4F2913",
"<  c #502913",
"1  c #502A13",
"2  c #502A14",
"3  c #512A14",
"4  c #55341F",
"5  c #57351F",
"6  c #58331B",
"7  c #5A371F",
"8  c #5A3821",
"9  c #5B3B26",
"0  c #5C3C24",
"q  c #5D3C27",
"w  c #5D3D27",
"e  c #5E3D27",
"r  c #5E3E29",
"t  c #5E3F2A",
"y  c #5E3F2B",
"u  c #72751B",
"i  c #5F402D",
"p  c #5F432E",
"a  c #60422E",
"s  c #61432E",
"d  c #60432F",
"f  c #61442E",
"g  c #60442F",
"h  c #62452F",
"j  c #614530",
"k  c #624631",
"l  c #634631",
"z  c #634632",
"x  c #634733",
"c  c #644732",
"v  c #644733",
"b  c #634833",
"n  c #644832",
"m  c #644833",
"M  c #654933",
"N  c #634834",
"B  c #654B38",
"V  c #5D564C",
"C  c #5D574C",
"Z  c #5D564D",
"A  c #5D574D",
"S  c #5E574D",
"D  c #5E574E",
"F  c #5F584E",
"G  c #5F584F",
"H  c #604A42",
"J  c #635646",
"K  c #6C5442",
"L  c #6F5847",
"P  c #61574C",
"I  c #60594F",
"U  c #665D4D",
"Y  c #665D4E",
"T  c #675E4E",
"R  c #675E4F",
"E  c #605950",
"W  c #615A50",
"Q  c #615A51",
"!  c #625B51",
"~  c #625B52",
"^  c #625C51",
"/  c #625C52",
"(  c #635C52",
")  c #635C53",
"_  c #665F50",
"`  c #675F50",
"'  c #645C53",
"]  c #645D53",
"[  c #655D53",
"{  c #645D54",
"}  c #655D54",
"|  c #645E54",
" . c #655E54",
".. c #645F54",
"X. c #655F55",
"o. c #665E54",
"O. c #685F50",
"+. c #656055",
"@. c #666056",
"#. c #666057",
"$. c #696051",
"%. c #696151",
"&. c #676358",
"*. c #696158",
"=. c #696258",
"-. c #6F695F",
";. c #746D5A",
":. c #70695E",
">. c #78705C",
",. c #6F6A60",
"<. c #706A60",
"1. c #716B61",
"2. c #716D61",
"3. c #726C61",
"4. c #716D62",
"5. c #726E62",
"6. c #747065",
"7. c #7B7260",
"8. c #7C7A6D",
"9. c #7C7A6E",
"0. c #7D7B6E",
"q. c #A43D11",
"w. c #817F72",
"e. c #817F73",
"r. c #FC9611",
"t. c #FCC711",
"y. c #828073",
"u. c #838173",
"i. c #828075",
"p. c #838075",
"a. c #838175",
"s. c #848174",
"d. c #848275",
"f. c #858275",
"g. c #858376",
"h. c #868376",
"j. c #868377",
"k. c #868477",
"l. c #878477",
"z. c #878478",
"x. c #878578",
"c. c #888578",
"v. c #888579",
"b. c #888679",
"n. c #898679",
"m. c #88857A",
"M. c #88867A",
"N. c #89867A",
"B. c #89877A",
"V. c #8A877A",
"C. c #8A877B",
"Z. c #8B887B",
"A. c #8C897D",
"S. c #8C897E",
"D. c #8C8A7E",
"F. c #FED64D",
"G. c #8D8B80",
"H. c #8E8C80",
"J. c #8E8C81",
"K. c #908D81",
"L. c #908E82",
"P. c #908E84",
"I. c #918F84",
"U. c #928F85",
"Y. c #929084",
"T. c #939185",
"R. c #929086",
"E. c #939187",
"W. c #949185",
"Q. c #949187",
"!. c #949286",
"~. c #939188",
"^. c #969388",
"/. c #95918A",
"(. c #96948A",
"). c #97958A",
"_. c #96948C",
"`. c #97948C",
"'. c #98968B",
"]. c #99968B",
"[. c #98958D",
"{. c #98968D",
"}. c #99968D",
"|. c #9A978C",
" X c #9A978D",
".X c #9B9990",
"XX c #9C9991",
"oX c #9C9A91",
"OX c #AEACA6",
"+X c #AEACA9",
"@X c #B6B3AF",
"#X c #B6B4B1",
"$X c #BDBDB8",
"%X c #BFBEBA",
"&X c #C2C1BD",
"*X c #C8C7C3",
"=X c #CCCCC9",
"-X c #D8D7D5",
";X c #D8D7D6",
":X c #E9E8E7",
">X c #EAEAE9",
",X c #FEFEFE",
"<X c white",
/* pixels */
"u u u u u u u u u u u u u u u u u u u u u u u u u u u u u u u u ",
"u u u u u u u u u u u u u u u u u q.u u u u u u u u u u u u u u ",
"u u u u u u u u u u u r t y a a i q.9 9 3 u u u F.u u u u u u u ",
"u u u u u u u u u v m {.[.[._.OXq.<XP.a.i.2 1 F.F.u u u u u u u ",
"u u u u u u u L K ,X{.{.{.{.`.<X<X<X,Xa.p.i.i.F.F.u u u u u u u ",
"u u u u u u B m.<X,X,X{.{.<X<X<X<X<X<X<X,Xi.i.F.F.< u u u u u u ",
"u u u u u x m.M.<X<X<X}.*X<X<X<X<X<X<X<X,X=X%XF.F.6., u u u u u ",
"u u u u u x M.M.,X,X<X,X<X<X<X<X<X<X<X<X<X,X<XF.<X<X, u u u u u ",
"u u u u u b M.M.R.<X<X<X<X<X<X<X<X<X<X<X<X<X,X5.<X;X, u u u u u ",
"u u u u u N N.N.<X<X<X<X<X<X<X<X<X<X<X<X<X<X<X-X<X4., u u u u u ",
"u u u u u z N.<X<X<X<X<X<X<X<X<X<X<X<X<X<X<X<X<X<X2., u u u u u ",
"u u q w e z ,X<X<X<X<X<X<X<X<X<X<X<X<X<X<X<X<X<X<X,X, > > > u u ",
"u s I.M.N.,Xt.<X<X<X<X<X<X<X<X<X<X<X<X<X<X<X<X<X<X<X,X<X<X<X: u ",
"u f U.N.,X<Xt.t.<X<X<X<X<X<X<X<X<X<X<X<X<X<X<X<X<X<X<X<X,X,X,Xu ",
"u h Q.q.<X<X<Xt.<X<X<Xq.<X<X<X<X<X<X<X<X<X<X<Xq.<X<X<X<X,XJ q.u ",
"u q.^.&X<X<X<X<X<X<X<Xq.<X<X<X<X<X<X<X<X<X<Xq.<X<X<X<X<X<X>X*   ",
"u M |.C.C.<X<X<X<X<X<X<X<X<X<X<X<X<X<X<X<X<X<X<X<X<X<X<X,X/.%   ",
"u M  XZ.V.6 <X<X<X<X<X<X<X<X<X<X<X<X<X<X<X<X<X<X<X<X<X@XU %.%   ",
"u M  XC.B.7 3.<X<X<X<X<X<X<X<X<X<X<X<X<X<X<X<Xr.<X<X<XY R $.#   ",
"u M |.V.B.0 :.,X<X<X<X<X<X<X<X<X<X<X<X<X<X<Xr.<X<X<X& R R O.#   ",
"u n ].N.n.,X<X<X<X<X<X<X<X<X<X<X<Xq.<X<X<X<X<X<X<X+XH R R O.@   ",
"u c '.n.v.,X,X>X:XP <X<X<X<X<X<X<X<X<X<X<X<X<X<X<X<X,XT ` J.@   ",
"u l '.b.c.8 =.*.5 4 <X<X<X<X<X<X<X<X<X<X<X<X,Xt.C ,X<X_ 0.J.O   ",
"u k ).v.x.k.g p 7.,X<X>.<X<X<X<X<X<X<X<X<X<Xt.;.<X<X<X$X0.G.o   ",
"u k ).x.x.l.j.g.d.<X<Xy.w.<X<X<X<X<X<X<X<X,X0.0.,X,X0.0.0.G.o   ",
"u j (.x.z.k.h.g.f.s.u.e.,X,X,X<X<X<X<X<X,X<X,X0.,X,X9.8.9.~.o   ",
"u d XXoXXXXX.X!.W.T.Y.L.K.<XH.<Xq.<X<XD.D.,X<XS.A.A.E.~.E.E.X   ",
"u 1 1.-.o. . . .[ ] ( ! E I G D <X,XX.| @.#X<XZ V V V ^ / &.X   ",
"u , <.}  . .} [ ] ' ~ Q E G F F F q.S A +.@.@.V V V V V V &.X   ",
"u , ,.{ { } ] ] ) ( ! W E G G F D q.S S #...Z Z V V V V V &.X   ",
"u : = = - ; ; = = * % $ # # # @ @ @ + o X X X X X . . . . . X u ",
"u u u u u u u u u u u u u u u u u u u u u u u u u u u u u u u u "
};
