/* XPM */
static char *result[] = {
/* columns rows colors chars-per-pixel */
"32 32 74 1 ",
"  c #311512",
". c #482510",
"X c #492510",
"o c #492511",
"O c #4A2511",
"+ c #4A2611",
"@ c #4B2611",
"# c #4C2712",
"$ c #4D2812",
"% c #4E2812",
"& c #4E2912",
"* c #4F2912",
"= c #4E2813",
"- c #4E2913",
"; c #4F2913",
": c #502A13",
"> c #512A14",
", c #5B3B26",
"< c #5E3E29",
"1 c #5E3F2A",
"2 c #72751B",
"3 c #61432E",
"4 c #60432F",
"5 c #61442E",
"6 c #62452F",
"7 c #614530",
"8 c #624631",
"9 c #634631",
"0 c #644732",
"q c #644832",
"w c #654933",
"e c #5D564C",
"r c #625B51",
"t c #645D54",
"y c #655D54",
"u c #685F50",
"i c #676358",
"p c #6F6A60",
"a c #706A60",
"s c #716B61",
"d c #726D61",
"f c #726D62",
"g c #A43D11",
"h c #FC9611",
"j c #FCC711",
"k c #89867A",
"l c #FED64D",
"z c #8D8B80",
"x c #8E8C81",
"c c #918F84",
"v c #98968B",
"b c #99968B",
"n c #98968D",
"m c #9A978C",
"M c #9C9991",
"N c #9C9A91",
"B c #AAA7A7",
"V c #AFA9A7",
"C c #B0A9A7",
"Z c #B3ACA9",
"A c #B5AEAB",
"S c #B8B2AE",
"D c #B9BAA8",
"F c #C1C0BC",
"G c #C2C1BC",
"H c #C6C5C1",
"J c #D3D0CF",
"K c #D5D2D0",
"L c #D6D5D4",
"P c #E5E4E3",
"I c #E8E8E3",
"U c #EFEFEE",
"Y c #FEFEFE",
"T c white",
/* pixels */
"22222222222222TTTD22222222222222",
"2222222222222YTTTgY2222222222222",
"2222DTT2222<1TTTTgT,>22Tl2222222",
"22YTTTT22YYnTTTTgTTTTTTll2222222",
"22YTY22STTTYTTTTlTTTTTTllY222222",
"22TTTTTTTTTTTTTTlTTTTTTllTT22222",
"22YTYTTTTTTTTTTllTTTTTTllTTTY222",
"222YTYTYTTTTTTTllTTTTTTldfTTTTY2",
"222YTATTTTTTTTTllTTTTTTTTYCTTTT2",
"222DTTTTTTTTTTTllTTTTTTTTTYTYTYY",
"22TTTTTTTTTTTTTllTTTTTTTTTTTD2YY",
"22ZKTTTTTTTTTTTllTTTTTTTTTTTY-T2",
"23cTTTjTTTTTTTTllTTTTTTTTTTTTTY2",
"25UTTTjjTTTTTTTllTTTTTTTTTTTTTV2",
"26TgTTTjTTTgTTllllTTTTTgTTTTTTg2",
"YgTTlllllllgllllllllllglllllTTT ",
"TlllllllllllllllllllllllllllllTT",
"TTTTTTTTTTTTTTllllTTTTTTTTTTTTYT",
"YwTTYjTTTTTTTTTllTTTTTThTTTTTTTB",
"2wmTTZjTTTTTTTTllTTTTThTTTTTTu@ ",
"2qbkTTTTTTTTTTTllgTTTllTTTTTTT+ ",
"20vGTTTTTTTTTTTllTTTTllTTTTTTT+ ",
"29YTTTTTTTTTTTTllTTTTllTTTTTTxO ",
"28TTTTTTTTTTTTTllTTTTllTTTTTYYo ",
"28YTTTTTTTTTTTTllTTTTlTTTTTTTzo ",
"27YFTTYTTTYTTTTllTTTTTTTTTTTTHo ",
"24MNTTTTTTTTTTTTgTTTTTTTTTTTTTX ",
"2:sYYYTTTTTTYTTTlTTTTTTYTTTTTTX ",
"2;ayTYTTTYTTTYTTlgTTTTTTTTTTTTX ",
"2;pttYYTTTrTTTTTYgTTLYTTeeeYeiX ",
"2=%%&**%%$#JTTTTPTTYXXXXX.....X2",
"222222222222TTITTTT2222222222222"
};
