/* XPM */
static char * 4_xpm[] = {
"32 32 7 1",
" 	c None",
".	c #66D1A6",
"+	c #F5DDA6",
"@	c #F2AC29",
"#	c #BDDEBA",
"$	c #3C9F9C",
"%	c #2A1D0D",
"                                ",
"                                ",
"                                ",
"                                ",
"                                ",
"                                ",
"                                ",
"              . .               ",
"              ...               ",
"              ...               ",
"             +@+@+              ",
"              +++               ",
"        ###   $$$   ###         ",
"        #  +++...+++  #         ",
"         #   .....   #          ",
"             ...$.              ",
"            ..$.$..             ",
"             +   +              ",
"             +   +              ",
"                                ",
"                                ",
"                                ",
"                                ",
"                                ",
"                                ",
"            %%%%%%%%            ",
"              %%%%              ",
"                                ",
"                                ",
"                                ",
"                                ",
"                                "};
