/* XPM */
static char * 5_xpm[] = {
"32 32 6 1",
" 	c None",
".	c #9C000F",
"+	c #500909",
"@	c #F5DDA6",
"#	c #F2AC29",
"$	c #2A1D0D",
"                                ",
"                                ",
"                                ",
"                                ",
"                                ",
"                                ",
"                                ",
"                                ",
"              . .               ",
"          +   ...   +           ",
"         ++   ...   ++          ",
"        +  + @#@#@ +  +         ",
"            + @@@               ",
"              +++               ",
"           @@@...@@@            ",
"             .....              ",
"             ...+.              ",
"            ..+.+..             ",
"             @   @              ",
"             @   @              ",
"                                ",
"                                ",
"                                ",
"                                ",
"                                ",
"            $$$$$$$$            ",
"              $$$$              ",
"                                ",
"                                ",
"                                ",
"                                ",
"                                "};
