/* XPM */
static char * 8_xpm[] = {
"32 32 6 1",
" 	c None",
".	c #9C000F",
"+	c #F5DDA6",
"@	c #F2AC29",
"#	c #500909",
"$	c #2A1D0D",
"                                ",
"                                ",
"                                ",
"                                ",
"                                ",
"                                ",
"                                ",
"              . .               ",
"              ...               ",
"              ...               ",
"             +@+@+              ",
"              +++               ",
"        ###   ###   ###         ",
"        #  +++...+++  #         ",
"         #   .....   #          ",
"             ...#.              ",
"            ..#.#..             ",
"             +   +              ",
"             +   +              ",
"                                ",
"                                ",
"                                ",
"                                ",
"                                ",
"                                ",
"            $$$$$$$$            ",
"              $$$$              ",
"                                ",
"                                ",
"                                ",
"                                ",
"                                "};
