/* XPM */
static char *result[] = {
/* columns rows colors chars-per-pixel */
"48 48 4 1 ",
"  c #FCC711",
". c #FED64D",
"X c white",
"o c None",
/* pixels */
"oooooooooooooooooooooooooooooooooooooooooooooooo",
"oooooooooooooooooooooooooooooooooooooooooooooooo",
"oooooooooooooooooooooooooooooooooooooooooooooooo",
"oooooooooooooooooooooooooooooooooooooooooooooooo",
"oooooooooooooooooooooooooooooooooooooooooooooooo",
"oooooooooooooooooooooooooooooooooooooooooooooooo",
"oooooooooooooooooooooooooooooooooooooooooooooooo",
"oooooooooooooooooooXXXXXXXXXXXoooooooooooooooooo",
"oooooooooooooo.....XXXXXXXXXXX....oooooooooooooo",
"ooooooooooooo .....XXXXXXXXXXX.... ooooooooooooo",
"ooooooooooooo .....XXXXXXXXXXX.... ooooooooooooo",
"ooooooooooooo .....XXXXXXXXXXX.... ooooooooooooo",
"ooooooooooooo .....XXXXXXXXXXX.... ooooooooooooo",
"ooooooooooooo .....XXXXXXXXXXX.... ooooooooooooo",
"ooooooooooooo .....XXXXXXXXXXX.... ooooooooooooo",
"oooooooooooooXXXXXXXXXXXXXXXXXXXXXXooooooooooooo",
"oooooooooooooXXXXXXXXXXXXXXXXXXXXXXooooooooooooo",
"oooooooooooooXXXXXXXXXXXXXXXXXXXXXXooooooooooooo",
"oooooooooooooXXXXXXXXXXXXXXXXXXXXXXooooooooooooo",
"oooooooooooooXXXXXXXXXXXXXXXXXXXXXXooooooooooooo",
"ooooooooooooo..XXXXXXXXXXXXXXXXXXXXooooooooooooo",
"ooooooooooooo..XXXXXXXXXXXXXXXXXXXXooooooooooooo",
"oooooooooooooXXXXXXXXXXXXXXXXXXXXXXooooooooooooo",
"ooooooooooooo .....XXXXXXXXXXX.... ooooooooooooo",
"ooooooooooooo .....XXXXXXXXXXX.... ooooooooooooo",
"ooooooooooooo .....XXXXXXXXXXX.... ooooooooooooo",
"ooooooooooooo .....XXXXXXXXXXX.... ooooooooooooo",
"ooooooooooooo .....XXXXXXXXXXX.... ooooooooooooo",
"ooooooooooooo .....XXXXXXXXXXX.... ooooooooooooo",
"ooooooooooooo .....XXXXXXXXXXX.... ooooooooooooo",
"ooooooooooooo .....XXXXXXXXXXX.... ooooooooooooo",
"ooooooooooooo .....XXXXXXXXXXX.... ooooooooooooo",
"ooooooooo..oo .....XXXXXXXXXXX.... ooooooooooooo",
"oooooooo....o .....XXXXXXXXXXX.... ooooooooooooo",
"oooooooo....o .....XXXXXXXXXXX.... ooooooooooooo",
"ooooooooo..oo .....XXXXXXXXXXX.... ooooooooooooo",
"ooooooooooooo .....XXXXXXXXXXX.... ooooooooooooo",
"ooooooooooooo .....XXXXXXXXXXX.... ooooooooooooo",
"ooooooooooooo .....XXXXXXXXXXX.... ooooooooooooo",
"ooooooooooooo .....XXXXXXXXXXX.... ooooooooooooo",
"ooooooooooooo .....XXXXXXXXXXX.... ooooooooooooo",
"ooooooooooooo .....XXXXXXXXXXX.... ooooooooooooo",
"ooooooooooooo .....XXXXXXXXXXX.... ooooooooooooo",
"oooooooooooooXX....XXXXXXXXXXX.... ooooooooooooo",
"ooooooooooooXXXX...XXXXXXXXXXX.... ooooooooooooo",
"ooooooooooXXXXXX...XXXXXXXXXXX.... ooooooooooooo",
"ooooooooXXXXXXX....XXXXXXXXXXX....oooooooooooooo",
"oooooooooooooooooooXXXXXXXXXXXoooooooooooooooooo"
};
