/* XPM */
static char *result[] = {
/* columns rows colors chars-per-pixel */
"48 48 5 1 ",
"  c #FC9611",
". c #FCC711",
"X c #FED64D",
"o c white",
"O c None",
/* pixels */
"OOOOOOOOOOOOOOOOOOOOOOOOOOOOOOOOOOOOOOOOOOOOOOOO",
"OOOOOOOOOOOOOOOOOOOOOOOOOOOOOOOOOOOOOOOOOOOOOOOO",
"OOOOOOOOOOOOOOOOOOOOOOOOOOOOOOOOOOOOOOOOOOOOOOOO",
"OOOOOOOOOOOOOOOOOOOOXXooooXXOOOOOOOOOOOOOOOOOOOO",
"OOOOOOOOOOOOOOOOOOO.XXooooXX.OOOOOOOOOOOOOOOOOOO",
"OOOOOOOOOOOOOOOOOO .XXooooXX. OOOOOOOOOOOOOOOOOO",
"OOOOOOOOOOOOOOOOOO .XXooooXX. OOOOOOOOOOOOOOOOOO",
"OOOOOOOOOOOOOOOOOO .XXooooXX. OOOOOOOOOOOOOOOOOO",
"OOOOOOOOOOOOOOOOOO .XXooooXX. OOOOOOOOOOOOOOOOOO",
"OOOOOOOOOOOOOOOOOO .XXooooXX. OOOOOOOOOOOOOOOOOO",
"OOOOOOOOOOOOOOOOOO .XXooooXX. OOOOOOOOOOOOOOOOOO",
"OOOOOOOOOOOOOOOOOO .XXooooXX. OOOOOOOOOOOOOOOOOO",
"OOOOOOOOOOOOOOOOOO .XXooooXX. OOOOOOOOOOOOOOOOOO",
"OOOOOOOOOOOOOOOOOO.XooooooooX.OOOOOOOOOOOOOOOOOO",
"OOOOOOOOOOOOOXOOOO.XooooooooX.OOOOOOOOOOOOOOOOOO",
"OOOOOOOOOOOOOXXOOO.XooooooooX.OOOOOOOOOOOOOOOOOO",
"OOOOOOOOOOOOOXXOOO.XooooooooX.OOOOOOOOOOOOOOOOOO",
"OOOOOOOOOOOOOXXOOO.XooooooooX.OOOOOOOOOOOOOOOOOO",
"OOOOOOOOOOOOOXXOOO .XXooooXX. OOOOOOOOOOOOOOOOOO",
"OOOOOOOOOOOOOXXOOO .XXooooXX. OOOOOOOOOOOOOOOOOO",
"OOOOOOOOOOOOOXXOOO .XXooooXX. OOOOOOOOOOOOOOOOOO",
"OOOOOOOOOXXOOOXOOO .XXooooXX. OOOOOOOOOOOOOOOOOO",
"OOOOOOOOXXXXOOOOOO .XXooooXX. OOOOOOOOOOOOOOOOOO",
"OOOOOOOOXXXXOOOOOO .XXooooXX. OOOOOOOOOOOOOOOOOO",
"OOOOOOOOXXXXOOOOOO .XXooooXX. OOOOOOOOOOOOOOOOOO",
"OOOOOOOOXXXXOOOOOO .XXooooXX. OOOOOOOOOOOOOOOOOO",
"OOOOOOOOXXXXOOOOOO .XXooooXX. OOOOOOOOOOOOOOOOOO",
"OOOOOOOOXXXXOOOOOO .XXooooXX. OOOOOOOOOOOOOOOOOO",
"OOOOOOOOXXXXOOOOOO .XXooooXX. OOOOOOOOOOOOOOOOOO",
"OOOOOOOOXXXXOOOOOO .XXooooXX. OOOOOOOOOOOOOOOOOO",
"OOOOOOOOXXXXOOOOOO .XXooooXX. OOOOOOOOOOOOOOOOOO",
"OOOOOOOOXXXXOOOOOO .XXooooXX. OOOOOOOOOOOOOOOOOO",
"OOOOOOOOXXXXOOOOOO .XXooooXX. OOOOOOOOOOOOOOOOOO",
"OOOOOOOOXXXXOOOOOO .XXooooXX. OOoooooOOOOOOOOOOO",
"OOOOOOOOXXXXOOOOOO .XXooooXX. OOOOooooOOOOOOOOOO",
"OOOOOOOOOXXOOOOOOO .XXooooXX. OOOOoooooOOOOOOOOO",
"OOOOOOOOOOOOOOOOOO .XXooooXX. OOOOOooooOOOOOOOOO",
"OOOOOOOOOOOOOOOOOO .XXooooXX. OOOOOooooOOOOOOOOO",
"OOOOOOOOOOOOOOOOOO .XXooooXX. OOOOOoooOOOOOOOOOO",
"OOOOOOOOOOOOOOOOOO .XXooooXX. OOOOoooOOOOOOOOOOO",
"OOOOOOOOOOOOOOOOOO .XXooooXX. OOOoooOOOOOOOOOOOO",
"OOOOOOOOOOOOOOOOOX .XXooooXX. OOOooOOOOOOOOOOOOO",
"OOOOOOOOOOOOOOOOXXX.XXooooXXoooooOOOOOOOOOOOOOOO",
"OOOOOOOOOOOOOOOOOX .XXooooooooOOOOOOOOOOOOOOOOOO",
"OOOOOOOOOOOOOOOOOoooXXooooXX. OOOOOOOOOOOOOOOOOO",
"OOOOOOOOOOOOOOOOOO .XXooooXX. OOOOOOOOOOOOOOOOOO",
"OOOOOOOOOOOOOOOOOOO.XXooooXX.OOOOOOOOOOOOOOOOOOO",
"OOOOOOOOOOOOOOOOOOOOXXooooXXOOOOOOOOOOOOOOOOOOOO"
};
