/* XPM */
static char *result[] = {
/* columns rows colors chars-per-pixel */
"48 48 5 1 ",
"  c #FC9611",
". c #FCC711",
"X c #FED64D",
"o c white",
"O c None",
/* pixels */
"OOOOOOOOOOOOOOOOOOOOOOOOOOOOOOOOOOOOOOOOOOOOOOOO",
"OOOOOOOOOOOOOOOOOOOOOOOOOOOOOOOOOOOOOOOOOOOOOOOO",
"OOOOOOOOOOOOOOOOOOOOOOOOOOOOOOOOOOOOOOOOOOOOOOOO",
"OOOOOOOOOOOOOOOOOOOOOOOooOOOOOOOOOOOOOOOOOOOOOOO",
"OOOOOOOOOOOOOOOOOOOOOO.oo.OOOOOOOOOOOOOOOOOOOOOO",
"OOOOOOOOOOOOOOOOOOOOO .oo. OOOOOOOOOOOOOOOOOOOOO",
"OOOOOOOOOOOOOOOOOOOOO .oX. OOOOOOOOOOOOOOOOOOOOO",
"OOOOOOOOOOOOOOOOOOOOO .oo. OOOOOOOOOOOOOOOOOOOOO",
"OOOOOOOOOOOOOOOOOOOOO .Xo. OOOOOOOOOOOOOOOOOOOOO",
"OOOOOOOOOOOOOOOOOOOOO .Xo. OOOOOOOOOOOOOOOOOOOOO",
"OOOOOOOOOOOOOOOOOOOOO .oo. OOOOOOOOOOOOOOOOOOOOO",
"OOOOOOOOOOOOOOOOOOOOO .oX. OOOOOOOOOOOOOOOOOOOOO",
"OOOOOOOOOOOOOOOOOOOOO .oX. OOOOOOOOOOOOOOOOOOOOO",
"OOOOOOOOOOOOOO.OOOOOO.XoXX.OOOOOOOOOOOOOOOOOOOOO",
"OOOOOOOOOOOOO..OOOOOO.XXXX.OOOOOOOOOOOOOOOOOOOOO",
"OOOOOOOOOOOOO..OOOOOO.XXXX.OOOOOOOOOOOOOOOOOOOOO",
"OOOOOOOOOOOOO..OOOOOO .XX. OOOOOOOOOOOOOOOOOOOOO",
"OOOOOOOOOOOOO.OOOOOOO .XX. OOOOOOOOOOOOOOOOOOOOO",
"OOOOOOOOOOOOOOOOOOOOO .XX. OOOOOOOOOOOOOOOOOOOOO",
"OOOOOOOOOOOOOOOOOOOOO .XX. OOOOOOOOOOOOOOOOOOOOO",
"OOOOOOOOO..OOOOOOOOOO .XX. OOOOOOOOOOOOOOOOOOOOO",
"OOOOOOOO....OOOOOOOOO .XX. OOOOOOOOOOOOOOOOOOOOO",
"OOOOOOOO....OOOOOOOOO .XX. OOOOOOOOOOOOOOOOOOOOO",
"OOOOOOOO....OOOOOOOOO .XX. OOOOOOOOOOOOOOOOOOOOO",
"OOOOOOOO....OOOOOOOOO .XX. OOOOOOOOOOOOOOOOOOOOO",
"OOOOOOOO....OOOOOOOOO .XX. OOOOOOOOOOOOOOOOOOOOO",
"OOOOOOOO....OOoOOooOO .XX. OOOOOOOOOOOOOOOOOOOOO",
"OOOOOOOOO..OOOOoooooO .XX. OOOOOOOOOOOOOOOOOOOOO",
"OOOOOOOOOOOOOOOOooooo .XX. OOOOOOOOOOOOOOOOOOOOO",
"OOOOOOOOOOOOOOOOOoooo .XX. OOOOOOOOOOOOOOOOOOOOO",
"OOOOOOOOOOOOOOOOOOOOO .XX. oOOOOOOOOOOOOOOOOOOOO",
"OOOOOOOOOOOOOOOOOOOOO .XX. oooOOOOOOOOOOOOOOOOOO",
"OOOOOOOOOOOOOOOOOOOOO .XX. OooooOOOOOOOOOOOOOOOO",
"OOOOOOOOOOOOOOOOOOOOO .XX. OOOOOOOOOOOOOOOOOOOOO",
"OOOOOOOOOOOOOOOOOXOOO .XX. OOOOOOOOOOOOOOOOOOOOO",
"OOOOOOOOOOOOOOOOXXXOO .XX. OOOOOOOOOOOOOOOOOOOOO",
"OOOOOOOOOOOOOOOOXXXOO .XX. OOOOOOOOOOOOOOOOOOOOO",
"OOOOOOOOOOOOOOOOXXXOO .XX. OOOOOOOOOOOOOOOOOOOOO",
"OOOOOOOOOOOOOOOOXXXOO .Xo. OOOOOOOOOOOOOOOOOOOOO",
"OOOOOOOOOOOOOOOOXXXOO .Xo. OOOOOOOOOOOOOOOOOOOOO",
"OOOOOOOOOOOOOOOOXXXOO .Xo. OOOOOOOOOOOOOOOOOOOOO",
"OOOOOOOOOOOOOOOOXXXOO .oo. OOXXXOOOOOOOOOOOOOOOO",
"OOOOOOOOOOOOOOOOXXXOO .oX.XXOOOOOOOOOOOOOOOOOOOO",
"OOOOOOOOOOOOOOOOOXXXO .oo. OOOOOOOOOOOOOOOOOOOOO",
"OOOOOOOOOOOOOOOOOOOOO .oo. OOOOOOOOOOOOOOOOOOOOO",
"OOOOOOOOOOOOOOOOOOOOO .oo. OOOOOOOOOOOOOOOOOOOOO",
"OOOOOOOOOOOOOOOOOOOOOO.oo.OOOOOOOOOOOOOOOOOOOOOO",
"OOOOOOOOOOOOOOOOOOOOOOOooOOOOOOOOOOOOOOOOOOOOOOO"
};
