/* XPM */
static char *result[] = {
/* columns rows colors chars-per-pixel */
"48 48 5 1 ",
"  c #FC9611",
". c #FCC711",
"X c #FED64D",
"o c white",
"O c None",
/* pixels */
"OOOOOOOOOOOOOOOOOOOOOOOOOOOOOOOOOOOOOOOOOOOOOOOO",
"OOOOOOOOOOOOOOOOOOOOOOOO.OOOOOOOOOOOOOOOOOOOOOOO",
"OOOOOOOOOOOOOOOOOOOOOOOX.OOOOOOOOOOOOOOOOOOOOOOO",
"OOOOOOOOOOOOOOOOOOOOOO X. OOOOOOOOOOOOOOOOOOOOOO",
"OOOOOOOOOOOOOOOOOOOOOO X. OOOOOOOOOOOOOOOOOOOOOO",
"OOOOOOOOOOOOOOOOOOOOOO X. OOOOOOOOOOOOOOOOOOOOOO",
"OOOOOOOOOOOOOOOOOOOOOO X. OOOOOOOOOOOOOOOOOOOOOO",
"OOOOOOOOOOOOOOOOOOOOOO X. OOOOOOOOOOOOOOOOOOOOOO",
"OOOOOOOOOOOOOOOOOOOOOO X. OOOOOOOOOOOOOOOOOOOOOO",
"OOOOOOOOOOOOOOOOOOOOOO X. OOOOOOOOOOOOOOOOOOOOOO",
"OOOOOOOOOOOOOOOOOOOOOO X. OOOOOOOOOOOOOOOOOOOOOO",
"OOOOOOOOOOOOOOOOOOOOOO X. OOOOOOOOOOOOOOOOOOOOOO",
"OOOOOOOOOOOOOOOOOOOOOO X. OOOOOOOOOOOOOOOOOOOOOO",
"OOOOOOOOOOOOO.OOOOOOOO X. OOOOOOOOOOOOOOOOOOOOOO",
"OOOOOOOOOOOOO..OOOOOOO X. OOOOOOOOOOOOOOOOOOOOOO",
"OOOOOOOOOOOOO..OOOOOOO X. OOOOOOOOOOOOOOOOOOOOOO",
"OOOOOOOOOOOOOO.OOOOOOO X. OOOOOOOOOOOOOOOOOOOOOO",
"OOOOOOOOOOOOOOOOOOOOOO X. OOOOOOOOOOOOOOOOOOOOOO",
"OOOOOOOOOOOOOOOOOOOOOO X. OOOOOOOOOOOOOOOOOOOOOO",
"OOOOOOOOOOOOOOOOOOOOOO X. OOOOOOOOOOOOOOOOOOOOOO",
"OOOOOOOOO.ooOOOOOOOOOO X. OOOOOOOOOOOOOOOOOOOOOO",
"OOOOOOOO.ooooooOOOOOOO X. OOOOOOOOOOOOOOOOOOOOOO",
"OOOOOOOOoooooOOOOOOOOO X. OOOOOOOOOOOOOOOOOOOOOO",
"OOOOOOOOooo.OOOOOOOOOO X. OOOOXXOOOOOOOOOOOOOOOO",
"OOOOOOOOOoooOOOOOOOOOO .X OOOOXXOOOOOOOOOOOOOOOO",
"OOOOOOOOOOooOOOOOOOOOO .X OOOOOOOOOOOOOOOOOOOOOO",
"OOOOOOOOOOOooOooOOOOOO .X OOOOOOOOOOOOOOOOOOOOOO",
"OOOOOOOOOOOOOOooooOOOO .X OOOOOOOOOOOOOOOOOOOOOO",
"OOOOOOOOOOOOOOOOOOOOOO .X OOOOOOOOOOOOOOOOOOOOOO",
"OOOOOOOOOOOOOOOOOOOOOO .X XXOOOOOOOOOOOOOOOOOOOO",
"OOOOOOOOOOOOOOOOOOOOOO .X OOOOOOOOOOOOOOOOOOOOOO",
"OOOOOOOOOOOOOOOOOOOOOO .X OOXXOXOOOOOOOOOOOOOOOO",
"OOOOOOOOOOOOOOOOOOOOOO .X OOOOOOOOOOOOOOOOOOOOOO",
"OOOOOOOOOOOOOOOOO.OOOO .X OOOOOOOOOOOOOOOOOOOOOO",
"OOOOOOOOOOOOOOOO...OOO .X OOOOOOOOOOOOOOOOOOOOOO",
"OOOOOOOOOOOOOOOO...OOO .X OOOOOOOOOOOOOOOOOOOOOO",
"OOOOOOOOOOOOOOOO...OOO .X OOOOOOOOOOOOOOOOOOOOOO",
"OOOOOOOOOOOOOOOO...OOO .X OOOOOOOOOOOOOOOOOOOOOO",
"OOOOOOOOOOOOOOOOO.OOOO .X OOOOOOOOOOOOOOOOOOOOOO",
"OOOOOOOOOOOOOOOOOOOOOO .X OOOOOOOOOOOOOOOOOOOOOO",
"OOOOOOOOOOOOOOOOOOOOOO .X OOOOOOOOOOOOOOOOOOOOOO",
"OOOOOOOOOOOOOOOOOOOOOO .X OOOO OOOOOOOOOOOOOOOOO",
"OOOOOOOOOOOOOOOOOOOOOO .X O OOOOOOOOOOOOOOOOOOOO",
"OOOOOOOOOOOOOOOOOO OOO .X OOOOOOOOOOOOOOOOOOOOOO",
"OOOOOOOOOOOOOOOOOOOOOO .X OOOOOOOOOOOOOOOOOOOOOO",
"OOOOOOOOOOOOOOOOOOOOOOO.XOOOOOOOOOOOOOOOOOOOOOOO",
"OOOOOOOOOOOOOOOOOOOOOOOOXOOOOOOOOOOOOOOOOOOOOOOO",
"OOOOOOOOOOOOOOOOOOOOOOOOOOOOOOOOOOOOOOOOOOOOOOOO"
};
