/* XPM */
static char *result[] = {
/* columns rows colors chars-per-pixel */
"48 48 6 1 ",
"  c #A43D11",
". c #FC9611",
"X c #FCC711",
"o c #FED64D",
"O c white",
"+ c None",
/* pixels */
"+++++++++++++++++++++++..+++++++++++++++++++++++",
"++++++++++++++++++++++++.+++++++++++++++++++++++",
"++++++++++++++++++++++++++++++++++++++++++++++++",
"++++++++++++++++++++++++++++++++++++++++++++++++",
"+++++++++++++++++++++++  +++++++++++++++++++++++",
"++++++++++++++++++++++++++++++++++++++++++++++++",
"+++++++++++++++++++++++..+++++++++++++++++++++++",
"+++++++++++++++++++++++..+++++++++++++++++++++++",
"++++++++++++++++++++++++++++++++++++++++++++++++",
"++++++++++++++++++++++++++++++++++++++++++++++++",
"++++++++++++++++++++++++++++++++++++++++++++++++",
"++++++++++++++++++++++++++++++++++++++++++++++++",
"+++++++++++++ ++++++++++++++++++++++++++++++++++",
"++++++++++++++ +++++++++++++++++++++++++++++++++",
"+++++++++++++++++++++++  +++++++++++++++++++++++",
"++++++++++++++++++++++++++++++++++++++++++++++++",
"+++++++++++++++++++++++++++++++X++++++++++++++++",
"+++++++++++++++++++++++  +OO++XX++++++++++++++++",
"+++++++++++++++++++++++++OOOOOXX++++++++++++++++",
"+++++++++..++++++++++OOOOOOOO+XX++++++++++++++++",
"++++++++....+++OOO++++++++OO++X+++++++++++++++++",
"+++++++++o+++OO+++++++++++++++++++++++++++++++++",
"+++++++++oo+++++++++++++++++++++++++++++++++++++",
"++++++++++++++++++++++++++++++++++++++++++++++++",
"++++++++++++++++++++++++++++++++++++++++++++++++",
"++++++++++++++.+++++++++++++++++++++++++++++++++",
"++++++++++++++++.+++++++++++++++++++++++++++++++",
"++++++++++++++++++++++++++++++++++++++++++++++++",
"+++++++++++++++++++++++  +++++++++++++++++++++++",
"++++++++++++++++++++++++++++++++++++++++++++++++",
"++++++++++++++++++++++++++++++++++++++++++++++++",
"++++++++++++++++++++++++++++++++++++++++++++++++",
"+++++++++++++++++.++++++++++++++++++++++++++++++",
"++++++++++++++++...++++  +++++++++++++++++++++++",
"+++++++++++++++++.+++++  +++++++++++++++++++++++",
"++++++++++++++++++++++++++++++++++++++++++++++++",
"++++++++++++++++++++++++++++++++++++++++++++++++",
"++++++++++++++++++++++++++++++++++++++++++++++++",
"++++++++++++++++++++++++++++++++++++++++++++++++",
"++++++++++++++++++++++++++++++++++++++++++++++++",
"++++++++++++++++++++++++++++++++++++++++++++++++",
"++++++++++++++++++++++++++++++++++++++++++++++++",
"++++++++++++++++++++++++++++++++++++++++++++++++",
"+++++++++++++++++++++++..+++++++++++++++++++++++",
"+++++++++++++++++++++++..+++++++++++++++++++++++",
"++++++++++++++++++++++++++++++++++++++++++++++++",
"++++++++++++++++++++++++++++++++++++++++++++++++",
"+++++++++++++++++++++++..+++++++++++++++++++++++"
};
