/* XPM */
static char *result[] = {
/* columns rows colors chars-per-pixel */
"32 32 21 1 ",
"  c #72751B",
". c #605C48",
"X c #64604B",
"o c #66624D",
"O c #6C6852",
"+ c #7C7B6E",
"@ c #807F72",
"# c #848377",
"$ c #848279",
"% c #878679",
"& c #86847A",
"* c #86847B",
"= c #87857C",
"- c #87867C",
"; c #87867D",
": c #88867D",
"> c #89877F",
", c #8D8B83",
"< c #8D8C83",
"1 c #8E8C83",
"2 c #939189",
/* pixels */
"                                ",
"  @@@@@@@@@@@@    ++++++++++++  ",
" :@@@@@@@@@@@@:  $++++++++++++$ ",
" :@@@@@@@@@@@@:  $++++++++++++$ ",
" :@@@@@@@@@@@@:  $++++++++++++$ ",
" :@@@@@@@@@@@@:  $++++++++++++$ ",
" :@@@@@@@@@@@@:  $++++++++++++$ ",
" :@@@@@@@@@@@@:  $++++++++++++$ ",
" :@@@@@@@@@@@@:  $++++++++++++$ ",
" :@@@@@@@@@@@@:  $++++++++++++$ ",
" :@@@@@@@@@@@@:  $++++++++++++$ ",
" :@@@@@@@@@@@@:  $++++++++++++$ ",
" :@@@@@@@@@@@@:  $++++++++++++$ ",
" :@@@@@@@@@@@@:  $++++++++++++$ ",
" X,,,,,,,,,,,,X  .>>>>>>>>>>>>X ",
"  XooooooooooX    ......XX...X  ",
"                                ",
"  %%%%%%%%%%%%    @@@@@@@@@@@@  ",
" 1%%%%%%%%%%%%<  #@@@@@@@@@@@@& ",
" 1%%%%%%%%%%%%1  *@@@@@@@@@@@@= ",
" 1%%%%%%%%%%%%1  =@@@@@@@@@@@@; ",
" 1%%%%%%%%%%%%1  -@@@@@@@@@@@@; ",
" 1%%%%%%%%%%%%1  ;@@@@@@@@@@@@; ",
" 1%%%%%%%%%%%%1  :@@@@@@@@@@@@; ",
" 1%%%%%%%%%%%%1  :@@@@@@@@@@@@; ",
" 1%%%%%%%%%%%%1  :@@@@@@@@@@@@; ",
" 1%%%%%%%%%%%%1  :@@@@@@@@@@@@= ",
" 1%%%%%%%%%%%%1  :@@@@@@@@@@@@= ",
" 1%%%%%%%%%%%%1  :@@@@@@@@@@@@= ",
" 1%%%%%%%%%%%%1  :@@@@@@@@@@@@= ",
" O222222222222o  X,,,,,,,,,,,,X ",
"  ooOOOOOOOooo    XXXXXXXXXXXX  "
};
