/* XPM */
static char *result[] = {
/* columns rows colors chars-per-pixel */
"32 64 39 1 ",
"  c #4D2711",
". c #4E2812",
"X c #512B14",
"o c #593722",
"O c #5B3A25",
"+ c #5D3E2A",
"@ c #72751B",
"# c #5F412E",
"$ c #52453B",
"% c #60412E",
"& c #564B40",
"* c #594F44",
"= c #5C5346",
"- c #5E5549",
"; c #655E55",
": c #676056",
"> c #686157",
", c #676158",
"< c #6B655C",
"1 c #6E685F",
"2 c #70685F",
"3 c #6F6A60",
"4 c #726E65",
"5 c #747067",
"6 c #76736A",
"7 c #78756D",
"8 c #797770",
"9 c #7C7A72",
"0 c #87857A",
"q c #89867B",
"w c #8B897D",
"e c #52CEE7",
"r c #8C8A81",
"t c #918F85",
"y c #929087",
"u c #96938B",
"i c #99978F",
"p c #9C9A92",
"a c #A09C96",
/* pixels */
"@@@@@@@@@@@@@@@@@@@@@@@@@@@@@@@@",
"@@@@@@@@@@@@@@@@@@@@@@@@@@@@@@@@",
"@@@@@@@@@@@@@@@@@@@@@@@@@@@@@@@@",
"@@@@@@@@@@@@@@@@@@@@@@@@@@@@@@@@",
"@@@@@@@@@@@@@@@@@@@@@@@@@@@@@@@@",
"@@@@@@@@@@@@@@@@@@@@@@@@@@@@@@@@",
"@@@@@+++######%#%%%+%+OOOoo@@@@@",
"@@@@+wrrqq00q000rrqq0q0qqqqo@@@@",
"@@@+twwqq0000000qq000q00000tO@@@",
"@@@otwq0qqq0qq0qqqq00000000tO@@@",
"@@@Oyqq0qqqqqqqqqqqq0q00000tO@@@",
"@@@Oy0qqq00qq0qqqqqqqqrtqq0uO@@@",
"@@@+uqq0qqqqqqqqqqqq0ttt0qqu%@@@",
"@@@Ou0q0qqqqqqqqwqqqqtttqqqu%@@@",
"@@@oiqqqqqqqqqqqqqqqqq0qqqqu%@@@",
"@@@Oiwwwqqqqwqqqqrqqqqrqqqqp%@@@",
"@@@OpwwwqqwqqrwqqqwwwwwwqqqpO@@@",
"@@@%pwwqqwqqwwwwwwwwwrwrqqqa+@@@",
"@@@%pwwwyyqwwwwqwwwwwwryttta%@@@",
"@@@%iqqwuuwwwwwwwwwwwwwytaa4O@@@",
"@@@X2iwwqwwwqrrrwwwryttta444X@@@",
"@@@X22ppaapiiuuiiiiipiaaa44,X@@@",
"@@@X<qw766666565<<3<3<222r,,X@@@",
"@@@Xw22766666523<22<32<22r;,X@@@",
"@@@Xr<<<13666<2<3<33111111r;X@@@",
"@@@Xr<111<3<2<2<<3<3111111<rX@@@",
"@@@X91<13<<<32eee23321231149X@@@",
"@@@X91<1<3<3<3e44ee233<31160X@@@",
"@@@X92<<3<22;3e334522<2<1169X@@@",
"@@@X91<<<3<333eee223233<<148X@@@",
"@@@X91<<;<<<<2e44ee<<<331<48X@@@",
"@@@X8<<<3<<3<<4<2443<3<<4448X@@@",
"@@@.63,3,3,33,,3,3,3,3335558X@@@",
"@@@.6,,,,;3,,,3ee;333,;,4358.@@@",
"@@@.8,,,,33,,3e33,e;,,,34458.@@@",
"@@@.6,;,;,,,,,e3eee,,,,,,458.@@@",
"@@@.6,,,;;3;,,e333e,,,,,,348X@@@",
"@@@.6;;;;;;3,;eee;3;;,,,,337.@@@",
"@@@.7;;;;;;3;;333;;;;,,,,,48.@@@",
"@@@.4;,,;;&&;;;;;;;;;;;,,;,8.@@@",
"@@@.6,,;,&55<<;;eee;;;;,,;:7.@@@",
"@@@.4,;;*33,<<,e3,3;;;,;:,,7.@@@",
"@@@.4;;;*5,3,<e;;ee;;;;,:::7.@@@",
"@@@.4;;&*5,,;;3e;3,;;;;;:;;7.@@@",
"@@@@.$$&5,3,;;,,eee;;;;;;;;7.@@@",
"@@@@.&44,3,3;;;;<,,;;;;;;><7.@@@",
"@@@@ &4;,,,;;;;;,;;;;;;;;<>7.@@@",
"@@@@ 6;;;3,;;;ee,ee;;;;;>>>7 @@@",
"@@@ 5;;;;;;:;;1e>e2;;;;;>>>7 @@@",
"@@@ 4;;;;,:;;::1;3;>;;;>>>;7.@@@",
"@@@ 5;;;,:;::::e>e>>;>>>;<;7.@@@",
"@@@ 5;,,::::::ee>ee>;;>>;;;7.@@@",
"@@@ 53,;>>>>:>21>43>>>>;;>;6X@@@",
"@@@ 53,,:>>>>>>><>>>>>&&;>>6 @@@",
"@@@ 533,>>>>><><>>>>>&==<><6 @@@",
"@@@ 53331111>><><>>>&*==**;7 @@@",
"@@@ 633311113>>>;<>&*===---6 @@@",
"@@@@ X  ....   .         X  @@@@",
"@@@@@@@@@@@@@@@@@@@@@@@@@@@@@@@@",
"@@@@@@@@@@@@@@@@@@@@@@@@@@@@@@@@",
"@@@@@@@@@@@@@@@@@@@@@@@@@@@@@@@@",
"@@@@@@@@@@@@@@@@@@@@@@@@@@@@@@@@",
"@@@@@@@@@@@@@@@@@@@@@@@@@@@@@@@@",
"@@@@@@@@@@@@@@@@@@@@@@@@@@@@@@@@"
};
