/* XPM */
static char *result[] = {
/* columns rows colors chars-per-pixel */
"32 32 127 2 ",
"   c #473A18",
".  c #4B3224",
"X  c #574C17",
"o  c #555216",
"O  c #605F18",
"+  c #645B1E",
"@  c #68611A",
"#  c #68621A",
"$  c #69621A",
"%  c #6A631B",
"&  c #6A641B",
"*  c #6A631C",
"=  c #6A631D",
"-  c #6C661C",
";  c #6D661F",
":  c #6B681A",
">  c #6C691A",
",  c #6C6A1A",
"<  c #6C6B1A",
"1  c #6D6B1A",
"2  c #6C6A1B",
"3  c #6E6D1A",
"4  c #6D681D",
"5  c #6D691D",
"6  c #6E6A1D",
"7  c #6E6B1D",
"8  c #6F6E1C",
"9  c #706F1B",
"0  c #706D1E",
"q  c #706F1F",
"w  c #6E701A",
"e  c #6E711A",
"r  c #71731B",
"t  c #71741B",
"y  c #72741B",
"u  c #72751B",
"i  c #70711D",
"p  c #71731C",
"a  c #71741C",
"s  c #74761E",
"d  c #75771E",
"f  c #5B4C27",
"g  c #5D4736",
"h  c #5E4938",
"j  c #615621",
"k  c #625721",
"l  c #645C20",
"z  c #655C22",
"x  c #655D22",
"c  c #655D23",
"v  c #625825",
"b  c #635825",
"n  c #635826",
"m  c #635827",
"M  c #685F26",
"N  c #635729",
"B  c #665C29",
"V  c #6D6620",
"C  c #6F6821",
"Z  c #6F6A20",
"A  c #6E6923",
"S  c #69602A",
"D  c #69602B",
"F  c #69612B",
"G  c #716924",
"H  c #716A24",
"J  c #726A25",
"K  c #747122",
"L  c #7A7729",
"P  c #6E6437",
"I  c #6E6439",
"U  c #665542",
"Y  c #645346",
"T  c #696051",
"R  c #6D6255",
"E  c #6D6458",
"W  c #756854",
"Q  c #706558",
"!  c #716659",
"~  c #71675B",
"^  c #70685C",
"/  c #756B5E",
"(  c #746E62",
")  c #796F62",
"_  c #796F64",
"`  c #796F65",
"'  c #7A6F65",
"]  c #777062",
"[  c #777163",
"{  c #787162",
"}  c #7C7161",
"|  c #7A7166",
" . c #7A7068",
".. c #7B736A",
"X. c #7B7569",
"o. c #7C746B",
"O. c #847E6F",
"+. c #807970",
"@. c #817A71",
"#. c #857F71",
"$. c #838175",
"%. c #858076",
"&. c #848276",
"*. c #848377",
"=. c #858377",
"-. c #888376",
";. c #898474",
":. c #8A8576",
">. c #8C8676",
",. c #858378",
"<. c #878278",
"1. c #868579",
"2. c #87857A",
"3. c #87857B",
"4. c #87867A",
"5. c #88857B",
"6. c #89877C",
"7. c #89867D",
"8. c #89877D",
"9. c #8A877E",
"0. c #8A887D",
"q. c #8B897F",
"w. c #8B8980",
"e. c #8C8980",
"r. c #8C8A80",
"t. c #8D8A82",
"y. c #98958C",
/* pixels */
"F w.1.*.b w u u u u u u u u u u u u u u u u u u u u u u c *.1.w.",
"F w.1.*.b w u u u u u u u u u u u u u u u u u u u u u u c *.1.w.",
"F w.1.*.b w u u u u u u u u u u u u u u u u u u u u u u c *.1.w.",
"F w.1.*.b w u u u u u u u u u u u u u u u u y u u u u u c *.1.w.",
"F w.1.*.b w u u u u u u u u u u u u u u u r $ < u u u u c ,.4.e.",
"D e.0.5.n w u u u u u u u u u u u u u r u @ H r u 1 r u l ..+.o.",
"M ` ) / k w u u u u u u u u u u u u < V 2 ; J > , G 1 u x $.=.9.",
"F w.1.*.v w u u u u u u u u u u u u r Z K * = L 4 & y u c *.1.w.",
"S w.1.*.v w u u u u u u u u u u u u u 3 s 5 5 d 8 3 u u c *.1.w.",
"F w.1.*.b w u u u u u u u u u u u u u u u u u u u u u u c *.1.w.",
"F w.1.*.b w u u u u u u u u u u u u u u u u u u u u u u c *.1.w.",
"F w.1.*.b w u u u u u u u u u u u u u u u u u u u u u u c =.1.w.",
"F w.1.3.m w u u u u u u u u u u u u u u u u u u u u u u z @.q.r.",
"D t.<.| j w u u u u u u u u u u u u u u u u u u u u u u l ( R  .",
"M ' ! ^ j w u u u u u u u u u u u u u u u u u u u u u u + E Q 7.",
"F w.&.Y j w u u u u u u u u u u u u u u u u u u u u u u + ~ =.w.",
"F w.1.X.j w u u u u u u u u u u u u u u u u u u u u u u c *.1.w.",
"F w.1.*.b w u u u u u u u u u u u u u u u u u u u u u u c *.1.w.",
"F w.1.*.b w u u u u u u u u u u u u u u u u u u u u u u c *.1.w.",
"F w.1.*.b w u u u u u u u u u u u u u u u u u u u u u u c *.1.w.",
"F w.1.*.b w u u u u u u u u u u u u u u u u u u u u u u c ,.4.e.",
"D e.8.2.n w u u u u u u u u u u u u u u u u u u u u u u l ..+.o.",
"M ` ) / k w u u u u u u u r < u u u u u q A u u u u u u x $.=.9.",
"F w.1.*.v w u u y u u y r # @ y u u i P } #.I y u u u u c *.1.w.",
"S w.1.*.v w u y @ , < $ @ H r u u a W ;.>.:.O.f e u u u c *.1.w.",
"F w.1.*.b w u u , G : G C C r u u p U %.y.-.] . o u u u c *.1.w.",
"F w.1.*.b w u u t 6 % 0 - 7 t u u u B T [ { g   e u u u c *.1.w.",
"F w.1.*.b w u u u u 9 d 9 u u u u u u N h X O t u u u u c *.1.w.",
"F w.1.*.b w u u u u u u u u u u u u u u u u u u u u u u c ,.4.e.",
"D e.6.2.n w u u u u u u u u u u u u u u u u u u u u u u l ..+.o.",
"M _ ) / j w u u u u u u u u u u u u u u u u u u u u u u x $.=.9.",
"F w.1.*.b w u u u u u u u u u u u u u u u u u u u u u u c *.1.w."
};
