/* XPM */
static char *result[] = {
/* columns rows colors chars-per-pixel */
"32 64 40 1 ",
"  c #4D2711",
". c #4E2812",
"X c #512B14",
"o c #593722",
"O c #5B3A25",
"+ c #5D3E2A",
"@ c #5F412E",
"# c #52453B",
"$ c #554A3E",
"% c #60412E",
"& c #564B40",
"* c #594F44",
"= c #5C5346",
"- c #5E5549",
"; c #655E55",
": c #676056",
"> c #686157",
", c #676158",
"< c #6B655C",
"1 c #6E685F",
"2 c #70685F",
"3 c #6F6A60",
"4 c #726E65",
"5 c #747067",
"6 c #76736A",
"7 c #78756D",
"8 c #797770",
"9 c #7C7A72",
"0 c #87857A",
"q c #89867B",
"w c #8B897D",
"e c #52CEE7",
"r c #8C8A81",
"t c #918F85",
"y c #929087",
"u c #96938B",
"i c #99978F",
"p c #9C9A92",
"a c #A09C96",
"s c None",
/* pixels */
"ssssssssssssssssssssssssssssssss",
"ssssssssssssssssssssssssssssssss",
"ssssssssssssssssssssssssssssssss",
"ssssssssssssssssssssssssssssssss",
"ssssssssssssssssssssssssssssssss",
"ssssssssssssssssssssssssssssssss",
"sssss+++@%@@@@%@++%+%%OO+oosssss",
"ssss+wrrqq00q000ttq00000q0qossss",
"sss+yww0qq0000000000000q000yOsss",
"sssOywq00qqqqqq0qqq0q00q000tOsss",
"sssOy00qqqqqqqq0qqqqqq0q000yOsss",
"sssOy0qqqqq0qqqqqqqq0qwyqq0u%sss",
"sssOu000wqqqqqqqqqqqqttt0qqu%sss",
"sssOu000qqqqqqqqqqqqqttyqqqu%sss",
"sssOp0qqqqqqqqqqqqqqqqqqqqqi%sss",
"sssOpwqqqqqqqqqqwqqwqqqqqqqi%sss",
"sss+pwwqqwqwqwwqqqwwwwwwqqqiOsss",
"sss%pwwwqwqqwwwwwwrwwwwrqqqa%sss",
"sss%iwwwyyqwwwwwwwwwwwryttya%sss",
"sss%iwqwuuwwwwwqwwwwwwwytaa4Osss",
"sssX2iwwqwwwrrrrwwwwyttya444Xsss",
"sssX22apaaiiuuuuuuiiauaaa44;Xsss",
"sssX2qq777575566333333223r;;Xsss",
"sssXw<275757752<3<<<2<2<3t;3Xsss",
"sssXr<<3<<665222<23<111111r;Xsss",
"sssXr11<333<222<<323111111<rXsss",
"sssX91<1<3<3<3eee2<311111140.sss",
"sssX9<1<3<3<23e54ee311111169osss",
"sssX92<<<3<3<3e<345222111149.sss",
"sssX91<13;33<<eee2222<121<68Xsss",
"sssX9<<<<3;3<<e54ee3<3<3<<48Xsss",
"sssX8<<<<<3;<34<<55<3<<<6448Xsss",
"sssX8,,33,,33,,3,3;3;3;34448Xsss",
"sss.8,,,,3,,,,3ee,333,3,4448Xsss",
"sss.8;,,,,3,,3e43,e;,;3,4448Xsss",
"sss.8,;,,,,,,,e3eee,3;,,,448.sss",
"sss.6,,,,;3;,,e333e;,,,,,448.sss",
"sssX6;,;;:,,,,eee;3;;,,,,338.sss",
"sss.6,;,:;,,,;333;;;;,,,,,48Xsss",
"sss.5,;;;;&*-;;;;;;;;;,,,;;8.sss",
"sss.4;;,;*443,;;eee;;;;,;,,8.sss",
"sss.4,;;*33,<<,e,3,;;;;,:,,8.sss",
"sss.4;;;*5,3<,e;;ee;;;;,:;:7.sss",
"sss.4;;**5<,;;3e;33;;;,;:;;7.sss",
"ssss.##&53,,;;,,eee;;;;;:;;7.sss",
"ssss.#54,,,3;;;;<,,;;;;;:<,7.sss",
"ssss.#5;,3,;;;;;;,;;;;;;:>>6.sss",
"ssss.7;;;,3;;;ee;ee;;;;;>>>7.sss",
"sss.5>;;;;:;;:2e:e1;;-;:>>>7.sss",
"sss.3;;;;>;::;;1:1::;:;>>>>7.sss",
"sss.5:;:;;;;:::e>e:>:::>>>>6.sss",
"sss.4;>:>>:>::ee>ee>::::>>>6.sss",
"sss.43>>>>>>>>22>44>>>>;:::6.sss",
"sss.53>>>>>>>>>>>>>>>>$$::>6.sss",
"sss.533>>>>>>>><><>>>$==>>>6.sss",
"sss.53333322>><><>>>$===$=>6.sss",
"sss.613333333>>><>>$===----6.sss",
"ssss....  .....X  .      .. ssss",
"ssssssssssssssssssssssssssssssss",
"ssssssssssssssssssssssssssssssss",
"ssssssssssssssssssssssssssssssss",
"ssssssssssssssssssssssssssssssss",
"ssssssssssssssssssssssssssssssss",
"ssssssssssssssssssssssssssssssss"
};
