/* XPM */
static char *result[] = {
/* columns rows colors chars-per-pixel */
"32 32 193 2 ",
"   c #543C2E",
".  c #574034",
"X  c #574337",
"o  c #574437",
"O  c #594236",
"+  c #594336",
"@  c #594337",
"#  c #5A4337",
"$  c #594437",
"%  c #574438",
"&  c #564639",
"*  c #56473A",
"=  c #5A4438",
"-  c #5A4538",
";  c #5A4439",
":  c #5A463A",
">  c #5B463A",
",  c #5B473B",
"<  c #5B483C",
"1  c #5B483D",
"2  c #594A3E",
"3  c #5C493D",
"4  c #5C493E",
"5  c #5D4B40",
"6  c #5C4B41",
"7  c #5C4C42",
"8  c #5D4C42",
"9  c #5C4D43",
"0  c #5C4E43",
"q  c #5F4E42",
"w  c #5D4D44",
"e  c #5D4E44",
"r  c #5E4F45",
"t  c #5E4F46",
"y  c #5C5146",
"u  c #5E5046",
"i  c #5F5046",
"p  c #5F5146",
"a  c #5F5147",
"s  c #5C5247",
"d  c #5D5247",
"f  c #5F5249",
"g  c #5F534A",
"h  c #604F44",
"j  c #605044",
"k  c #605247",
"l  c #605248",
"z  c #605249",
"x  c #605349",
"c  c #60534A",
"v  c #60544A",
"b  c #61544A",
"n  c #61544B",
"m  c #62554B",
"M  c #66574B",
"N  c #60554C",
"B  c #60554D",
"V  c #62564D",
"C  c #61564E",
"Z  c #60574F",
"A  c #62574E",
"S  c #67554D",
"D  c #64564C",
"F  c #61584F",
"G  c #62584E",
"H  c #62584F",
"J  c #63584F",
"K  c #63594F",
"L  c #64584D",
"P  c #65594E",
"I  c #64594F",
"U  c #685B4F",
"Y  c #615750",
"T  c #615850",
"R  c #615851",
"E  c #625850",
"W  c #625950",
"Q  c #635A50",
"!  c #625A51",
"~  c #635A51",
"^  c #635B52",
"/  c #655950",
"(  c #675850",
")  c #645A51",
"_  c #665B50",
"`  c #645B52",
"'  c #645B53",
"]  c #655C52",
"[  c #645C53",
"{  c #655C54",
"}  c #655D55",
"|  c #665E55",
" . c #655D56",
".. c #655E56",
"X. c #655E57",
"o. c #665F56",
"O. c #665E57",
"+. c #665F57",
"@. c #685C50",
"#. c #6A5D56",
"$. c #6A5E56",
"%. c #665F58",
"&. c #666057",
"*. c #666058",
"=. c #676058",
"-. c #676158",
";. c #676159",
":. c #686159",
">. c #6A6159",
",. c #686259",
"<. c #68615A",
"1. c #68625A",
"2. c #68635A",
"3. c #69635A",
"4. c #68625B",
"5. c #69635B",
"6. c #6A635B",
"7. c #6B635B",
"8. c #69645B",
"9. c #6E675A",
"0. c #6A645C",
"q. c #6A655C",
"w. c #6B655D",
"e. c #6B665C",
"r. c #6B665D",
"t. c #6B675D",
"y. c #6B655E",
"u. c #6C665D",
"i. c #6C675E",
"p. c #6C665F",
"a. c #6C675F",
"s. c #6C685E",
"d. c #6D685F",
"f. c #6C6760",
"g. c #6F6760",
"h. c #6D6861",
"j. c #6F6962",
"k. c #6F6A62",
"l. c #706760",
"z. c #736B60",
"x. c #706962",
"c. c #706963",
"v. c #706A63",
"b. c #716A63",
"n. c #706B63",
"m. c #746A61",
"M. c #746B61",
"N. c #706B65",
"B. c #706C64",
"V. c #716C65",
"C. c #736C65",
"Z. c #726C66",
"A. c #736D67",
"S. c #736E67",
"D. c #766C65",
"F. c #736F68",
"G. c #746F68",
"H. c #746F6A",
"J. c #756F6A",
"K. c #787164",
"L. c #747069",
"P. c #757368",
"I. c #75706A",
"U. c #75716A",
"Y. c #76716A",
"T. c #76726A",
"R. c #77736B",
"E. c #767469",
"W. c #7E766B",
"Q. c #78736C",
"!. c #78746D",
"~. c #7C7A70",
"^. c #7D7B71",
"/. c #827A70",
"(. c #807D75",
"). c #807E75",
"_. c #817E76",
"`. c #817F76",
"'. c #827F77",
"]. c #838077",
"[. c #878076",
"{. c #838078",
"}. c #848179",
"|. c #868478",
" X c #86857A",
".X c #87857A",
"XX c #87867A",
"oX c #86857C",
"OX c #89867F",
"+X c #8A8880",
"@X c #8E8D84",
"#X c #8F8E84",
"$X c #A39D98",
/* pixels */
"[.W.W.W.W.W.W./.$XW.W.W.W.W.W.W.W.W.W.W.W.W.W./.$XW.W.W.W.W.W.[.",
"@X X X X X.XXX|.K.XXXXXXXXXXXXXX X X X X X.XXX|.K.XXXXXXXXXXXX#X",
"OX(.(.(.(.).{.].M.}.{.'.'._.`.`.(.(.(.(.(.).{.].M.}.{.'.'._.`.+X",
"!.d.d.d.d.d.d.u.P s.s.s.s.i.i.i.d.d.d.d.d.d.d.u.P s.s.s.s.i.i.Q.",
"Q.i.i.i.i.i.i.e.L i.t.t.r.r.r.r.i.i.i.i.i.i.i.e.L i.t.t.r.r.r.R.",
"R.r.r.r.r.r.r.0.D w.q.q.q.q.q.q.r.r.r.r.r.r.r.0.D w.q.q.q.q.q.T.",
"Y.0.0.0.0.0.0.3.k 8.8.8.8.8.8.8.0.0.0.0.0.0.0.3.k 8.8.8.8.8.8.U.",
"L.2.2.2.2.2.2.-.p 1.1.1.2.2.2.2.2.2.2.2.2.2.2.-.p 1.1.1.2.2.2.L.",
"A.+.+.+.+.+.+...e +.+.+.+.+.+.+.+.+.+.+.+.+.+...e +.+.+.+.+.+.S.",
"( o o o o o o % 2 o o   X o o % o o o o o o o % 2 o o   X o o ( ",
"6.s s s s s s s s s s & y d d d s s s s s s s s s s s & y d d 7.",
"6.s s s s s s s s s s * y d d d s s s s s s s s s s s * y d d 7.",
"j.! ! ! ! ! ! ! ! ! ! 0 F ! ! ! ! ! ! ! ! ! ! ! ! ! ! 0 F ! ! j.",
"x.~ Q G ` ' [ [ [ J b 3 x ` [ [ ` ` ~ J ~ ^ ` ` ` H v 1 l ` ` b.",
"U.8.3.I N.V.V.V.B.n.v.k.k.k.k.k.n.V.j.) 5.5.5.5.5.5.5.3.5.5.5.I.",
"F.;.=.>.h.h.h.h.h.h.h.h.h.h.h.h.h.h.f.K ;.;.;.;.;.;.;.;.;.;.;.F.",
"F.;.=.>.h.h.h.h.h.h.h.h.h.h.h.h.h.h.f.K ;.;.;.;.;.;.;.;.;.;.;.F.",
"S.*.o./ f.p.f.f.f.f.f.a.p.p.p.p.p.p.y.i &.&.&.*.*.*.*.*.*.=.=.S.",
"l.V x 5 4 5 q j h h h - + = = @ @ O + : $ $ $ = > , , # m ] | C.",
"A.%.%.%.%.%.%.%.%.%.+.a f Y T T T T T T T T T T T T B < O.%.%.A.",
"A.%.%.%.%.%.%.%.%.%.%.H R R R R R R R R R R R R R R R t  .%.%.A.",
"A.%.%.%.%.%.%.%.%.%.%.c Y R R R R R R R R R R R R R R w X.%.%.A.",
"c.H V V W W E H H H i ; 6 9 u g g g N Z f e e e e 7 6 . r A H g.",
"J.4.:.J 4.4.4.4.4.4.1.<.1.1.1.1.1.1.{ 8 ) 1.1.1.1.1.<.<.1.1.4.H.",
"A.%.O.H %.%.%.%.%.%.%.%.%.%.%.%.%.%.X.z %.%.%.%.%.%.%.%.%.%.%.A.",
"A.%.O.C %.%.%.%.%.%.%.%.%.%.%.%.%.%.O.n %.%.%.%.%.%.%.%.%.%.%.A.",
"Z...} a ........O...................} a ........O.............Z.",
"m.@.@.U @.@.@.U M @.@.@.@.@.@.@.@.@.@.U @.@.@.U M @.@.@.@.@.@.m.",
").E.E.E.E.E.E.P.9.E.E.E.E.E.E.E.E.E.E.E.E.E.E.P.9.E.E.E.E.E.E.).",
"oX^.^.^.^.^.^.~.z.^.^.^.^.^.^.^.^.^.^.^.^.^.^.~.z.^.^.^.^.^.^.oX",
"G.,.,.,.,.,.,.-._ ,.,.,.,.,.,.,.,.,.,.,.,.,.,.-._ ,.,.,.,.,.,.G.",
"D.$.$.$.$.$.$.#.S $.$.$.$.$.$.$.$.$.$.$.$.$.$.#.S $.$.$.$.$.$.D."
};
