/* XPM */
static char *result[] = {
/* columns rows colors chars-per-pixel */
"32 64 39 1 ",
"  c #4D2711",
". c #4E2812",
"X c #512B14",
"o c #593722",
"O c #5B3A25",
"+ c #5D3E2A",
"@ c #5F412E",
"# c #52453A",
"$ c #55493D",
"% c #60412E",
"& c #574B40",
"* c #594E43",
"= c #5C5246",
"- c #5F5549",
"; c #655E55",
": c #676056",
"> c #686157",
", c #676158",
"< c #6B655C",
"1 c #6E685F",
"2 c #70685F",
"3 c #6F6A60",
"4 c #726E65",
"5 c #747067",
"6 c #76736A",
"7 c #78756D",
"8 c #797770",
"9 c #7C7A72",
"0 c #87857A",
"q c #89867B",
"w c #8B897D",
"e c #8C8A81",
"r c #918F85",
"t c #929087",
"y c #96938B",
"u c #99978F",
"i c #9C9A92",
"p c #A09C96",
"a c None",
/* pixels */
"aaaaaaaaaaaaaaaaaaaaaaaaaaaaaaaa",
"aaaaaaaaaaaaaaaaaaaaaaaaaaaaaaaa",
"aaaaaaaaaaaaaaaaaaaaaaaaaaaaaaaa",
"aaaaaaaaaaaaaaaaaaaaaaaaaaaaaaaa",
"aaaaaaaaaaaaaaaaaaaaaaaaaaaaaaaa",
"aaaaaaaaaaaaaaaaaaaaaaaaaaaaaaaa",
"aaaaa+++@%@@@@%@++%+%++O+ooaaaaa",
"aaaa+weeqq00q000rr00qq0q00qoaaaa",
"aaa+tww0qq00000000000000000r+aaa",
"aaaOtwq00qqqqqq0qqq0000q000r+aaa",
"aaaOt00qqqqqqqq0qqqqqqqqq00toaaa",
"aaaOt0qqqqq0qqqqqqqqqqwrqq0y%aaa",
"aaaOy000wqqqqqqqqqqqqrrtqqqy%aaa",
"aaaOy000qqqqqqqqqqqqqrrtqqqy%aaa",
"aaaOi0qqqqqqqqqqwqwqqqqqqqqy%aaa",
"aaaOiwqqqqqqqqqqqqqqqqqqqqqu%aaa",
"aaa+iwwqqqwqwwwqqqwwwwwwqwqiOaaa",
"aaa%iwwwqqqqwwwwwwewwwweqqqi%aaa",
"aaa%uwwwytqwwqwwwwwwwweyrrti%aaa",
"aaa%uwqwyywwwwwwwwqwwwwrrpp4Oaaa",
"aaaX2uwwwweweeeewwweryrrp444Xaaa",
"aaaX22pipiuuyyyyyuuuuuppp45;Xaaa",
"aaaX2qq7666666663<3<;2223e;<Xaaa",
"aaaXw<277666642<<3<332223e;<Xaaa",
"aaaXe<<3<<6662<232;3211111e;oaaa",
"aaaXe11<333<222<2233111111<eXaaa",
"aaaX91<1<3<3<2***<3311111149Xaaa",
"aaaX9<1<3<3<22&64--311111160Xaaa",
"aaaX92<<<3<3<3&<346<32321169.aaa",
"aaaX91<13;33<<&**3232<3<1<48Xaaa",
"aaaX9<<<<3;3<<*44--<2<32<<48Xaaa",
"aaaX8<<<<<3;<34<3452<2<<4648Xaaa",
"aaaX8,<<,<<,<<<,<33,,33,4438Xaaa",
"aaa.8,,,<<<<<<,*&,<3,,,34459Xaaa",
"aaaX8,,;<,,<,,&<3<&,,3,,4448Xaaa",
"aaa.8,,;,<<,<<&3&&#,,,,,,439.aaa",
"aaa.6,,,,,,,,,&333#;,,,,,348.aaa",
"aaaX6;;,,;,,,,&#&;3;;,,,,348.aaa",
"aaa.6;,;;,,,,;<<3;;;,,,,,,48Xaaa",
"aaa.6;;;;,&*;;;;;;;;;;;,,,,6.aaa",
"aaa.5:::;&55<<;;#&&;;;;;:,,8 aaa",
"aaa.5:;;*3,<<<,#3,,;;;;;,:;8.aaa",
"aaa.4;;;*6,<<<#;;##;;;;;::,7.aaa",
"aaa.4;;&*6<<;;<#;33;;;,;,;;7.aaa",
"aaaa.##&6,<<;;,,##+;;;;;::;7.aaa",
"aaaa.#44<<<<;;;;<<,;;;;;:>,6.aaa",
"aaaa.#6;,,,;;;;;;;;;;;;;:,>7.aaa",
"aaaa.6;;;,,;;;&#;##;;;;;><>7.aaa",
"aaa.5;;;;;>;;;2#:#1;;;;:>>>6.aaa",
"aaa.4;;;;;;;;>;2:1;:;;;>>>>6.aaa",
"aaa.5:::>>;;;;>#>$>>;::>>>>7.aaa",
"aaa.4:::>;>>>>##>##:;;:::>>7.aaa",
"aaa.53::>>>>>>22>11>>>>::>:6.aaa",
"aaa.53::>>>>>>><>><<>>$$>;>6.aaa",
"aaa.533:>>>><>>><<>>>$==>>>6.aaa",
"aaa.53331313>>>><><>$===$=>6.aaa",
"aaa.713333333><><>>$===-=--6.aaa",
"aaaa....  ......  .  .  ... aaaa",
"aaaaaaaaaaaaaaaaaaaaaaaaaaaaaaaa",
"aaaaaaaaaaaaaaaaaaaaaaaaaaaaaaaa",
"aaaaaaaaaaaaaaaaaaaaaaaaaaaaaaaa",
"aaaaaaaaaaaaaaaaaaaaaaaaaaaaaaaa",
"aaaaaaaaaaaaaaaaaaaaaaaaaaaaaaaa",
"aaaaaaaaaaaaaaaaaaaaaaaaaaaaaaaa"
};
